G04 #@! TF.GenerationSoftware,KiCad,Pcbnew,5.0.2-bee76a0~70~ubuntu18.04.1*
G04 #@! TF.CreationDate,2019-02-08T21:36:26-08:00*
G04 #@! TF.ProjectId,sao-bob_ross1,73616f2d-626f-4625-9f72-6f7373312e6b,rev?*
G04 #@! TF.SameCoordinates,Original*
G04 #@! TF.FileFunction,Soldermask,Bot*
G04 #@! TF.FilePolarity,Negative*
%FSLAX46Y46*%
G04 Gerber Fmt 4.6, Leading zero omitted, Abs format (unit mm)*
G04 Created by KiCad (PCBNEW 5.0.2-bee76a0~70~ubuntu18.04.1) date Fri 08 Feb 2019 09:36:26 PM PST*
%MOMM*%
%LPD*%
G01*
G04 APERTURE LIST*
%ADD10C,0.100000*%
G04 APERTURE END LIST*
D10*
G36*
X97650443Y-107645519D02*
X97716627Y-107652037D01*
X97829853Y-107686384D01*
X97886467Y-107703557D01*
X98025087Y-107777652D01*
X98042991Y-107787222D01*
X98078729Y-107816552D01*
X98180186Y-107899814D01*
X98263448Y-108001271D01*
X98292778Y-108037009D01*
X98292779Y-108037011D01*
X98376443Y-108193533D01*
X98376443Y-108193534D01*
X98427963Y-108363373D01*
X98445359Y-108540000D01*
X98427963Y-108716627D01*
X98393616Y-108829853D01*
X98376443Y-108886467D01*
X98302348Y-109025087D01*
X98292778Y-109042991D01*
X98263448Y-109078729D01*
X98180186Y-109180186D01*
X98078729Y-109263448D01*
X98042991Y-109292778D01*
X98042989Y-109292779D01*
X97886467Y-109376443D01*
X97829853Y-109393616D01*
X97716627Y-109427963D01*
X97650443Y-109434481D01*
X97584260Y-109441000D01*
X97495740Y-109441000D01*
X97429557Y-109434481D01*
X97363373Y-109427963D01*
X97250147Y-109393616D01*
X97193533Y-109376443D01*
X97037011Y-109292779D01*
X97037009Y-109292778D01*
X97001271Y-109263448D01*
X96899814Y-109180186D01*
X96816552Y-109078729D01*
X96787222Y-109042991D01*
X96777652Y-109025087D01*
X96703557Y-108886467D01*
X96686384Y-108829853D01*
X96652037Y-108716627D01*
X96634641Y-108540000D01*
X96652037Y-108363373D01*
X96703557Y-108193534D01*
X96703557Y-108193533D01*
X96787221Y-108037011D01*
X96787222Y-108037009D01*
X96816552Y-108001271D01*
X96899814Y-107899814D01*
X97001271Y-107816552D01*
X97037009Y-107787222D01*
X97054913Y-107777652D01*
X97193533Y-107703557D01*
X97250147Y-107686384D01*
X97363373Y-107652037D01*
X97429557Y-107645519D01*
X97495740Y-107639000D01*
X97584260Y-107639000D01*
X97650443Y-107645519D01*
X97650443Y-107645519D01*
G37*
G36*
X95110443Y-107645519D02*
X95176627Y-107652037D01*
X95289853Y-107686384D01*
X95346467Y-107703557D01*
X95485087Y-107777652D01*
X95502991Y-107787222D01*
X95538729Y-107816552D01*
X95640186Y-107899814D01*
X95723448Y-108001271D01*
X95752778Y-108037009D01*
X95752779Y-108037011D01*
X95836443Y-108193533D01*
X95836443Y-108193534D01*
X95887963Y-108363373D01*
X95905359Y-108540000D01*
X95887963Y-108716627D01*
X95853616Y-108829853D01*
X95836443Y-108886467D01*
X95762348Y-109025087D01*
X95752778Y-109042991D01*
X95723448Y-109078729D01*
X95640186Y-109180186D01*
X95538729Y-109263448D01*
X95502991Y-109292778D01*
X95502989Y-109292779D01*
X95346467Y-109376443D01*
X95289853Y-109393616D01*
X95176627Y-109427963D01*
X95110443Y-109434481D01*
X95044260Y-109441000D01*
X94955740Y-109441000D01*
X94889557Y-109434481D01*
X94823373Y-109427963D01*
X94710147Y-109393616D01*
X94653533Y-109376443D01*
X94497011Y-109292779D01*
X94497009Y-109292778D01*
X94461271Y-109263448D01*
X94359814Y-109180186D01*
X94276552Y-109078729D01*
X94247222Y-109042991D01*
X94237652Y-109025087D01*
X94163557Y-108886467D01*
X94146384Y-108829853D01*
X94112037Y-108716627D01*
X94094641Y-108540000D01*
X94112037Y-108363373D01*
X94163557Y-108193534D01*
X94163557Y-108193533D01*
X94247221Y-108037011D01*
X94247222Y-108037009D01*
X94276552Y-108001271D01*
X94359814Y-107899814D01*
X94461271Y-107816552D01*
X94497009Y-107787222D01*
X94514913Y-107777652D01*
X94653533Y-107703557D01*
X94710147Y-107686384D01*
X94823373Y-107652037D01*
X94889557Y-107645519D01*
X94955740Y-107639000D01*
X95044260Y-107639000D01*
X95110443Y-107645519D01*
X95110443Y-107645519D01*
G37*
G36*
X100190443Y-107645519D02*
X100256627Y-107652037D01*
X100369853Y-107686384D01*
X100426467Y-107703557D01*
X100565087Y-107777652D01*
X100582991Y-107787222D01*
X100618729Y-107816552D01*
X100720186Y-107899814D01*
X100803448Y-108001271D01*
X100832778Y-108037009D01*
X100832779Y-108037011D01*
X100916443Y-108193533D01*
X100916443Y-108193534D01*
X100967963Y-108363373D01*
X100985359Y-108540000D01*
X100967963Y-108716627D01*
X100933616Y-108829853D01*
X100916443Y-108886467D01*
X100842348Y-109025087D01*
X100832778Y-109042991D01*
X100803448Y-109078729D01*
X100720186Y-109180186D01*
X100618729Y-109263448D01*
X100582991Y-109292778D01*
X100582989Y-109292779D01*
X100426467Y-109376443D01*
X100369853Y-109393616D01*
X100256627Y-109427963D01*
X100190443Y-109434481D01*
X100124260Y-109441000D01*
X100035740Y-109441000D01*
X99969557Y-109434481D01*
X99903373Y-109427963D01*
X99790147Y-109393616D01*
X99733533Y-109376443D01*
X99577011Y-109292779D01*
X99577009Y-109292778D01*
X99541271Y-109263448D01*
X99439814Y-109180186D01*
X99356552Y-109078729D01*
X99327222Y-109042991D01*
X99317652Y-109025087D01*
X99243557Y-108886467D01*
X99226384Y-108829853D01*
X99192037Y-108716627D01*
X99174641Y-108540000D01*
X99192037Y-108363373D01*
X99243557Y-108193534D01*
X99243557Y-108193533D01*
X99327221Y-108037011D01*
X99327222Y-108037009D01*
X99356552Y-108001271D01*
X99439814Y-107899814D01*
X99541271Y-107816552D01*
X99577009Y-107787222D01*
X99594913Y-107777652D01*
X99733533Y-107703557D01*
X99790147Y-107686384D01*
X99903373Y-107652037D01*
X99969557Y-107645519D01*
X100035740Y-107639000D01*
X100124260Y-107639000D01*
X100190443Y-107645519D01*
X100190443Y-107645519D01*
G37*
G36*
X95901000Y-106901000D02*
X94099000Y-106901000D01*
X94099000Y-105099000D01*
X95901000Y-105099000D01*
X95901000Y-106901000D01*
X95901000Y-106901000D01*
G37*
G36*
X100190442Y-105105518D02*
X100256627Y-105112037D01*
X100369853Y-105146384D01*
X100426467Y-105163557D01*
X100565087Y-105237652D01*
X100582991Y-105247222D01*
X100618729Y-105276552D01*
X100720186Y-105359814D01*
X100803448Y-105461271D01*
X100832778Y-105497009D01*
X100832779Y-105497011D01*
X100916443Y-105653533D01*
X100916443Y-105653534D01*
X100967963Y-105823373D01*
X100985359Y-106000000D01*
X100967963Y-106176627D01*
X100933616Y-106289853D01*
X100916443Y-106346467D01*
X100842348Y-106485087D01*
X100832778Y-106502991D01*
X100803448Y-106538729D01*
X100720186Y-106640186D01*
X100618729Y-106723448D01*
X100582991Y-106752778D01*
X100582989Y-106752779D01*
X100426467Y-106836443D01*
X100369853Y-106853616D01*
X100256627Y-106887963D01*
X100190443Y-106894481D01*
X100124260Y-106901000D01*
X100035740Y-106901000D01*
X99969557Y-106894481D01*
X99903373Y-106887963D01*
X99790147Y-106853616D01*
X99733533Y-106836443D01*
X99577011Y-106752779D01*
X99577009Y-106752778D01*
X99541271Y-106723448D01*
X99439814Y-106640186D01*
X99356552Y-106538729D01*
X99327222Y-106502991D01*
X99317652Y-106485087D01*
X99243557Y-106346467D01*
X99226384Y-106289853D01*
X99192037Y-106176627D01*
X99174641Y-106000000D01*
X99192037Y-105823373D01*
X99243557Y-105653534D01*
X99243557Y-105653533D01*
X99327221Y-105497011D01*
X99327222Y-105497009D01*
X99356552Y-105461271D01*
X99439814Y-105359814D01*
X99541271Y-105276552D01*
X99577009Y-105247222D01*
X99594913Y-105237652D01*
X99733533Y-105163557D01*
X99790147Y-105146384D01*
X99903373Y-105112037D01*
X99969557Y-105105519D01*
X100035740Y-105099000D01*
X100124260Y-105099000D01*
X100190442Y-105105518D01*
X100190442Y-105105518D01*
G37*
G36*
X97650442Y-105105518D02*
X97716627Y-105112037D01*
X97829853Y-105146384D01*
X97886467Y-105163557D01*
X98025087Y-105237652D01*
X98042991Y-105247222D01*
X98078729Y-105276552D01*
X98180186Y-105359814D01*
X98263448Y-105461271D01*
X98292778Y-105497009D01*
X98292779Y-105497011D01*
X98376443Y-105653533D01*
X98376443Y-105653534D01*
X98427963Y-105823373D01*
X98445359Y-106000000D01*
X98427963Y-106176627D01*
X98393616Y-106289853D01*
X98376443Y-106346467D01*
X98302348Y-106485087D01*
X98292778Y-106502991D01*
X98263448Y-106538729D01*
X98180186Y-106640186D01*
X98078729Y-106723448D01*
X98042991Y-106752778D01*
X98042989Y-106752779D01*
X97886467Y-106836443D01*
X97829853Y-106853616D01*
X97716627Y-106887963D01*
X97650443Y-106894481D01*
X97584260Y-106901000D01*
X97495740Y-106901000D01*
X97429557Y-106894481D01*
X97363373Y-106887963D01*
X97250147Y-106853616D01*
X97193533Y-106836443D01*
X97037011Y-106752779D01*
X97037009Y-106752778D01*
X97001271Y-106723448D01*
X96899814Y-106640186D01*
X96816552Y-106538729D01*
X96787222Y-106502991D01*
X96777652Y-106485087D01*
X96703557Y-106346467D01*
X96686384Y-106289853D01*
X96652037Y-106176627D01*
X96634641Y-106000000D01*
X96652037Y-105823373D01*
X96703557Y-105653534D01*
X96703557Y-105653533D01*
X96787221Y-105497011D01*
X96787222Y-105497009D01*
X96816552Y-105461271D01*
X96899814Y-105359814D01*
X97001271Y-105276552D01*
X97037009Y-105247222D01*
X97054913Y-105237652D01*
X97193533Y-105163557D01*
X97250147Y-105146384D01*
X97363373Y-105112037D01*
X97429557Y-105105519D01*
X97495740Y-105099000D01*
X97584260Y-105099000D01*
X97650442Y-105105518D01*
X97650442Y-105105518D01*
G37*
G36*
X74734239Y-99311467D02*
X75048282Y-99373934D01*
X75639926Y-99619001D01*
X76168802Y-99972385D01*
X76172395Y-99974786D01*
X76625214Y-100427605D01*
X76625216Y-100427608D01*
X76980999Y-100960074D01*
X77223891Y-101546467D01*
X77226066Y-101551719D01*
X77351000Y-102179803D01*
X77351000Y-102820197D01*
X77295381Y-103099814D01*
X77226066Y-103448282D01*
X76980999Y-104039926D01*
X76949901Y-104086467D01*
X76625214Y-104572395D01*
X76172395Y-105025214D01*
X76172392Y-105025216D01*
X75639926Y-105380999D01*
X75048282Y-105626066D01*
X74734239Y-105688533D01*
X74420197Y-105751000D01*
X73779803Y-105751000D01*
X73465761Y-105688533D01*
X73151718Y-105626066D01*
X72560074Y-105380999D01*
X72027608Y-105025216D01*
X72027605Y-105025214D01*
X71574786Y-104572395D01*
X71250099Y-104086467D01*
X71219001Y-104039926D01*
X70973934Y-103448282D01*
X70904619Y-103099814D01*
X70849000Y-102820197D01*
X70849000Y-102179803D01*
X70973934Y-101551719D01*
X70976109Y-101546467D01*
X71219001Y-100960074D01*
X71574784Y-100427608D01*
X71574786Y-100427605D01*
X72027605Y-99974786D01*
X72031198Y-99972385D01*
X72560074Y-99619001D01*
X73151718Y-99373934D01*
X73465761Y-99311467D01*
X73779803Y-99249000D01*
X74420197Y-99249000D01*
X74734239Y-99311467D01*
X74734239Y-99311467D01*
G37*
G36*
X91290443Y-102845519D02*
X91356627Y-102852037D01*
X91469853Y-102886384D01*
X91526467Y-102903557D01*
X91665087Y-102977652D01*
X91682991Y-102987222D01*
X91718729Y-103016552D01*
X91820186Y-103099814D01*
X91903448Y-103201271D01*
X91932778Y-103237009D01*
X91932779Y-103237011D01*
X92016443Y-103393533D01*
X92016443Y-103393534D01*
X92067963Y-103563373D01*
X92085359Y-103740000D01*
X92067963Y-103916627D01*
X92033616Y-104029853D01*
X92016443Y-104086467D01*
X91942348Y-104225087D01*
X91932778Y-104242991D01*
X91903448Y-104278729D01*
X91820186Y-104380186D01*
X91718729Y-104463448D01*
X91682991Y-104492778D01*
X91682989Y-104492779D01*
X91526467Y-104576443D01*
X91469853Y-104593616D01*
X91356627Y-104627963D01*
X91290443Y-104634481D01*
X91224260Y-104641000D01*
X91135740Y-104641000D01*
X91069557Y-104634481D01*
X91003373Y-104627963D01*
X90890147Y-104593616D01*
X90833533Y-104576443D01*
X90677011Y-104492779D01*
X90677009Y-104492778D01*
X90641271Y-104463448D01*
X90539814Y-104380186D01*
X90456552Y-104278729D01*
X90427222Y-104242991D01*
X90417652Y-104225087D01*
X90343557Y-104086467D01*
X90326384Y-104029853D01*
X90292037Y-103916627D01*
X90274641Y-103740000D01*
X90292037Y-103563373D01*
X90343557Y-103393534D01*
X90343557Y-103393533D01*
X90427221Y-103237011D01*
X90427222Y-103237009D01*
X90456552Y-103201271D01*
X90539814Y-103099814D01*
X90641271Y-103016552D01*
X90677009Y-102987222D01*
X90694913Y-102977652D01*
X90833533Y-102903557D01*
X90890147Y-102886384D01*
X91003373Y-102852037D01*
X91069558Y-102845518D01*
X91135740Y-102839000D01*
X91224260Y-102839000D01*
X91290443Y-102845519D01*
X91290443Y-102845519D01*
G37*
G36*
X88750443Y-102845519D02*
X88816627Y-102852037D01*
X88929853Y-102886384D01*
X88986467Y-102903557D01*
X89125087Y-102977652D01*
X89142991Y-102987222D01*
X89178729Y-103016552D01*
X89280186Y-103099814D01*
X89363448Y-103201271D01*
X89392778Y-103237009D01*
X89392779Y-103237011D01*
X89476443Y-103393533D01*
X89476443Y-103393534D01*
X89527963Y-103563373D01*
X89545359Y-103740000D01*
X89527963Y-103916627D01*
X89493616Y-104029853D01*
X89476443Y-104086467D01*
X89402348Y-104225087D01*
X89392778Y-104242991D01*
X89363448Y-104278729D01*
X89280186Y-104380186D01*
X89178729Y-104463448D01*
X89142991Y-104492778D01*
X89142989Y-104492779D01*
X88986467Y-104576443D01*
X88929853Y-104593616D01*
X88816627Y-104627963D01*
X88750443Y-104634481D01*
X88684260Y-104641000D01*
X88595740Y-104641000D01*
X88529557Y-104634481D01*
X88463373Y-104627963D01*
X88350147Y-104593616D01*
X88293533Y-104576443D01*
X88137011Y-104492779D01*
X88137009Y-104492778D01*
X88101271Y-104463448D01*
X87999814Y-104380186D01*
X87916552Y-104278729D01*
X87887222Y-104242991D01*
X87877652Y-104225087D01*
X87803557Y-104086467D01*
X87786384Y-104029853D01*
X87752037Y-103916627D01*
X87734641Y-103740000D01*
X87752037Y-103563373D01*
X87803557Y-103393534D01*
X87803557Y-103393533D01*
X87887221Y-103237011D01*
X87887222Y-103237009D01*
X87916552Y-103201271D01*
X87999814Y-103099814D01*
X88101271Y-103016552D01*
X88137009Y-102987222D01*
X88154913Y-102977652D01*
X88293533Y-102903557D01*
X88350147Y-102886384D01*
X88463373Y-102852037D01*
X88529558Y-102845518D01*
X88595740Y-102839000D01*
X88684260Y-102839000D01*
X88750443Y-102845519D01*
X88750443Y-102845519D01*
G37*
G36*
X86210443Y-102845519D02*
X86276627Y-102852037D01*
X86389853Y-102886384D01*
X86446467Y-102903557D01*
X86585087Y-102977652D01*
X86602991Y-102987222D01*
X86638729Y-103016552D01*
X86740186Y-103099814D01*
X86823448Y-103201271D01*
X86852778Y-103237009D01*
X86852779Y-103237011D01*
X86936443Y-103393533D01*
X86936443Y-103393534D01*
X86987963Y-103563373D01*
X87005359Y-103740000D01*
X86987963Y-103916627D01*
X86953616Y-104029853D01*
X86936443Y-104086467D01*
X86862348Y-104225087D01*
X86852778Y-104242991D01*
X86823448Y-104278729D01*
X86740186Y-104380186D01*
X86638729Y-104463448D01*
X86602991Y-104492778D01*
X86602989Y-104492779D01*
X86446467Y-104576443D01*
X86389853Y-104593616D01*
X86276627Y-104627963D01*
X86210443Y-104634481D01*
X86144260Y-104641000D01*
X86055740Y-104641000D01*
X85989557Y-104634481D01*
X85923373Y-104627963D01*
X85810147Y-104593616D01*
X85753533Y-104576443D01*
X85597011Y-104492779D01*
X85597009Y-104492778D01*
X85561271Y-104463448D01*
X85459814Y-104380186D01*
X85376552Y-104278729D01*
X85347222Y-104242991D01*
X85337652Y-104225087D01*
X85263557Y-104086467D01*
X85246384Y-104029853D01*
X85212037Y-103916627D01*
X85194641Y-103740000D01*
X85212037Y-103563373D01*
X85263557Y-103393534D01*
X85263557Y-103393533D01*
X85347221Y-103237011D01*
X85347222Y-103237009D01*
X85376552Y-103201271D01*
X85459814Y-103099814D01*
X85561271Y-103016552D01*
X85597009Y-102987222D01*
X85614913Y-102977652D01*
X85753533Y-102903557D01*
X85810147Y-102886384D01*
X85923373Y-102852037D01*
X85989558Y-102845518D01*
X86055740Y-102839000D01*
X86144260Y-102839000D01*
X86210443Y-102845519D01*
X86210443Y-102845519D01*
G37*
G36*
X87001000Y-102101000D02*
X85199000Y-102101000D01*
X85199000Y-100299000D01*
X87001000Y-100299000D01*
X87001000Y-102101000D01*
X87001000Y-102101000D01*
G37*
G36*
X88750442Y-100305518D02*
X88816627Y-100312037D01*
X88929853Y-100346384D01*
X88986467Y-100363557D01*
X89106296Y-100427608D01*
X89142991Y-100447222D01*
X89178729Y-100476552D01*
X89280186Y-100559814D01*
X89363448Y-100661271D01*
X89392778Y-100697009D01*
X89392779Y-100697011D01*
X89476443Y-100853533D01*
X89476443Y-100853534D01*
X89527963Y-101023373D01*
X89545359Y-101200000D01*
X89527963Y-101376627D01*
X89493616Y-101489853D01*
X89476443Y-101546467D01*
X89402348Y-101685087D01*
X89392778Y-101702991D01*
X89363448Y-101738729D01*
X89280186Y-101840186D01*
X89178729Y-101923448D01*
X89142991Y-101952778D01*
X89142989Y-101952779D01*
X88986467Y-102036443D01*
X88929853Y-102053616D01*
X88816627Y-102087963D01*
X88750443Y-102094481D01*
X88684260Y-102101000D01*
X88595740Y-102101000D01*
X88529558Y-102094482D01*
X88463373Y-102087963D01*
X88350147Y-102053616D01*
X88293533Y-102036443D01*
X88137011Y-101952779D01*
X88137009Y-101952778D01*
X88101271Y-101923448D01*
X87999814Y-101840186D01*
X87916552Y-101738729D01*
X87887222Y-101702991D01*
X87877652Y-101685087D01*
X87803557Y-101546467D01*
X87786384Y-101489853D01*
X87752037Y-101376627D01*
X87734641Y-101200000D01*
X87752037Y-101023373D01*
X87803557Y-100853534D01*
X87803557Y-100853533D01*
X87887221Y-100697011D01*
X87887222Y-100697009D01*
X87916552Y-100661271D01*
X87999814Y-100559814D01*
X88101271Y-100476552D01*
X88137009Y-100447222D01*
X88173704Y-100427608D01*
X88293533Y-100363557D01*
X88350147Y-100346384D01*
X88463373Y-100312037D01*
X88529558Y-100305518D01*
X88595740Y-100299000D01*
X88684260Y-100299000D01*
X88750442Y-100305518D01*
X88750442Y-100305518D01*
G37*
G36*
X91290442Y-100305518D02*
X91356627Y-100312037D01*
X91469853Y-100346384D01*
X91526467Y-100363557D01*
X91646296Y-100427608D01*
X91682991Y-100447222D01*
X91718729Y-100476552D01*
X91820186Y-100559814D01*
X91903448Y-100661271D01*
X91932778Y-100697009D01*
X91932779Y-100697011D01*
X92016443Y-100853533D01*
X92016443Y-100853534D01*
X92067963Y-101023373D01*
X92085359Y-101200000D01*
X92067963Y-101376627D01*
X92033616Y-101489853D01*
X92016443Y-101546467D01*
X91942348Y-101685087D01*
X91932778Y-101702991D01*
X91903448Y-101738729D01*
X91820186Y-101840186D01*
X91718729Y-101923448D01*
X91682991Y-101952778D01*
X91682989Y-101952779D01*
X91526467Y-102036443D01*
X91469853Y-102053616D01*
X91356627Y-102087963D01*
X91290443Y-102094481D01*
X91224260Y-102101000D01*
X91135740Y-102101000D01*
X91069558Y-102094482D01*
X91003373Y-102087963D01*
X90890147Y-102053616D01*
X90833533Y-102036443D01*
X90677011Y-101952779D01*
X90677009Y-101952778D01*
X90641271Y-101923448D01*
X90539814Y-101840186D01*
X90456552Y-101738729D01*
X90427222Y-101702991D01*
X90417652Y-101685087D01*
X90343557Y-101546467D01*
X90326384Y-101489853D01*
X90292037Y-101376627D01*
X90274641Y-101200000D01*
X90292037Y-101023373D01*
X90343557Y-100853534D01*
X90343557Y-100853533D01*
X90427221Y-100697011D01*
X90427222Y-100697009D01*
X90456552Y-100661271D01*
X90539814Y-100559814D01*
X90641271Y-100476552D01*
X90677009Y-100447222D01*
X90713704Y-100427608D01*
X90833533Y-100363557D01*
X90890147Y-100346384D01*
X91003373Y-100312037D01*
X91069558Y-100305518D01*
X91135740Y-100299000D01*
X91224260Y-100299000D01*
X91290442Y-100305518D01*
X91290442Y-100305518D01*
G37*
M02*
