G04 #@! TF.GenerationSoftware,KiCad,Pcbnew,5.0.2-bee76a0~70~ubuntu18.04.1*
G04 #@! TF.CreationDate,2019-02-08T21:36:26-08:00*
G04 #@! TF.ProjectId,sao-bob_ross1,73616f2d-626f-4625-9f72-6f7373312e6b,rev?*
G04 #@! TF.SameCoordinates,Original*
G04 #@! TF.FileFunction,Soldermask,Top*
G04 #@! TF.FilePolarity,Negative*
%FSLAX46Y46*%
G04 Gerber Fmt 4.6, Leading zero omitted, Abs format (unit mm)*
G04 Created by KiCad (PCBNEW 5.0.2-bee76a0~70~ubuntu18.04.1) date Fri 08 Feb 2019 09:36:26 PM PST*
%MOMM*%
%LPD*%
G01*
G04 APERTURE LIST*
%ADD10C,0.010000*%
%ADD11C,0.100000*%
G04 APERTURE END LIST*
D10*
G04 #@! TO.C,G\002A\002A\002A*
G36*
X90610859Y-111893656D02*
X90735526Y-111905674D01*
X90793240Y-111912480D01*
X90881754Y-111922273D01*
X90973397Y-111930168D01*
X91073475Y-111936344D01*
X91187293Y-111940983D01*
X91320154Y-111944264D01*
X91477365Y-111946366D01*
X91664228Y-111947470D01*
X91832923Y-111947753D01*
X92073653Y-111948464D01*
X92309291Y-111950352D01*
X92536226Y-111953313D01*
X92750847Y-111957242D01*
X92949542Y-111962036D01*
X93128700Y-111967590D01*
X93284710Y-111973800D01*
X93413962Y-111980562D01*
X93512843Y-111987773D01*
X93577742Y-111995328D01*
X93593719Y-111998507D01*
X93690302Y-112040690D01*
X93764479Y-112108374D01*
X93815097Y-112194272D01*
X93841004Y-112291095D01*
X93841048Y-112391555D01*
X93814077Y-112488363D01*
X93758938Y-112574231D01*
X93693576Y-112630280D01*
X93647806Y-112656984D01*
X93600484Y-112675929D01*
X93544973Y-112687761D01*
X93474638Y-112693129D01*
X93382841Y-112692680D01*
X93262948Y-112687062D01*
X93171308Y-112681248D01*
X93029276Y-112672371D01*
X92867222Y-112663283D01*
X92704151Y-112654996D01*
X92559067Y-112648519D01*
X92545778Y-112647990D01*
X92232864Y-112635714D01*
X92247448Y-112897434D01*
X92253120Y-112991912D01*
X92261192Y-113116244D01*
X92271037Y-113261324D01*
X92282033Y-113418046D01*
X92293552Y-113577303D01*
X92300954Y-113676923D01*
X92314204Y-113860117D01*
X92327215Y-114052935D01*
X92339691Y-114249910D01*
X92351338Y-114445574D01*
X92361861Y-114634459D01*
X92370964Y-114811099D01*
X92378354Y-114970025D01*
X92383735Y-115105770D01*
X92386812Y-115212866D01*
X92387375Y-115279545D01*
X92372772Y-115423583D01*
X92334133Y-115550731D01*
X92274583Y-115656752D01*
X92197251Y-115737410D01*
X92105265Y-115788468D01*
X92001752Y-115805689D01*
X91999000Y-115805649D01*
X91955503Y-115798703D01*
X91897540Y-115782482D01*
X91884801Y-115778116D01*
X91792510Y-115729323D01*
X91716144Y-115659070D01*
X91689475Y-115621000D01*
X91680011Y-115583792D01*
X91672621Y-115509710D01*
X91667441Y-115400908D01*
X91664612Y-115259543D01*
X91664359Y-115230231D01*
X91656901Y-114837558D01*
X91639871Y-114408599D01*
X91613350Y-113944934D01*
X91577419Y-113448143D01*
X91566511Y-113313331D01*
X91511457Y-112646893D01*
X91188613Y-112633624D01*
X90956419Y-112621227D01*
X90760561Y-112604008D01*
X90598485Y-112580950D01*
X90467636Y-112551035D01*
X90365460Y-112513246D01*
X90289401Y-112466567D01*
X90236906Y-112409979D01*
X90205419Y-112342465D01*
X90192386Y-112263009D01*
X90191692Y-112236672D01*
X90197073Y-112150902D01*
X90217644Y-112084642D01*
X90260047Y-112021635D01*
X90295928Y-111981584D01*
X90339606Y-111941232D01*
X90386395Y-111913172D01*
X90442837Y-111896496D01*
X90515477Y-111890294D01*
X90610859Y-111893656D01*
X90610859Y-111893656D01*
G37*
X90610859Y-111893656D02*
X90735526Y-111905674D01*
X90793240Y-111912480D01*
X90881754Y-111922273D01*
X90973397Y-111930168D01*
X91073475Y-111936344D01*
X91187293Y-111940983D01*
X91320154Y-111944264D01*
X91477365Y-111946366D01*
X91664228Y-111947470D01*
X91832923Y-111947753D01*
X92073653Y-111948464D01*
X92309291Y-111950352D01*
X92536226Y-111953313D01*
X92750847Y-111957242D01*
X92949542Y-111962036D01*
X93128700Y-111967590D01*
X93284710Y-111973800D01*
X93413962Y-111980562D01*
X93512843Y-111987773D01*
X93577742Y-111995328D01*
X93593719Y-111998507D01*
X93690302Y-112040690D01*
X93764479Y-112108374D01*
X93815097Y-112194272D01*
X93841004Y-112291095D01*
X93841048Y-112391555D01*
X93814077Y-112488363D01*
X93758938Y-112574231D01*
X93693576Y-112630280D01*
X93647806Y-112656984D01*
X93600484Y-112675929D01*
X93544973Y-112687761D01*
X93474638Y-112693129D01*
X93382841Y-112692680D01*
X93262948Y-112687062D01*
X93171308Y-112681248D01*
X93029276Y-112672371D01*
X92867222Y-112663283D01*
X92704151Y-112654996D01*
X92559067Y-112648519D01*
X92545778Y-112647990D01*
X92232864Y-112635714D01*
X92247448Y-112897434D01*
X92253120Y-112991912D01*
X92261192Y-113116244D01*
X92271037Y-113261324D01*
X92282033Y-113418046D01*
X92293552Y-113577303D01*
X92300954Y-113676923D01*
X92314204Y-113860117D01*
X92327215Y-114052935D01*
X92339691Y-114249910D01*
X92351338Y-114445574D01*
X92361861Y-114634459D01*
X92370964Y-114811099D01*
X92378354Y-114970025D01*
X92383735Y-115105770D01*
X92386812Y-115212866D01*
X92387375Y-115279545D01*
X92372772Y-115423583D01*
X92334133Y-115550731D01*
X92274583Y-115656752D01*
X92197251Y-115737410D01*
X92105265Y-115788468D01*
X92001752Y-115805689D01*
X91999000Y-115805649D01*
X91955503Y-115798703D01*
X91897540Y-115782482D01*
X91884801Y-115778116D01*
X91792510Y-115729323D01*
X91716144Y-115659070D01*
X91689475Y-115621000D01*
X91680011Y-115583792D01*
X91672621Y-115509710D01*
X91667441Y-115400908D01*
X91664612Y-115259543D01*
X91664359Y-115230231D01*
X91656901Y-114837558D01*
X91639871Y-114408599D01*
X91613350Y-113944934D01*
X91577419Y-113448143D01*
X91566511Y-113313331D01*
X91511457Y-112646893D01*
X91188613Y-112633624D01*
X90956419Y-112621227D01*
X90760561Y-112604008D01*
X90598485Y-112580950D01*
X90467636Y-112551035D01*
X90365460Y-112513246D01*
X90289401Y-112466567D01*
X90236906Y-112409979D01*
X90205419Y-112342465D01*
X90192386Y-112263009D01*
X90191692Y-112236672D01*
X90197073Y-112150902D01*
X90217644Y-112084642D01*
X90260047Y-112021635D01*
X90295928Y-111981584D01*
X90339606Y-111941232D01*
X90386395Y-111913172D01*
X90442837Y-111896496D01*
X90515477Y-111890294D01*
X90610859Y-111893656D01*
G36*
X83071158Y-111757634D02*
X83147769Y-111762608D01*
X83211999Y-111771268D01*
X83272737Y-111784384D01*
X83317215Y-111796419D01*
X83540768Y-111875678D01*
X83744850Y-111978775D01*
X83926059Y-112102796D01*
X84080994Y-112244828D01*
X84206254Y-112401959D01*
X84298436Y-112571276D01*
X84333184Y-112666485D01*
X84358155Y-112789333D01*
X84368329Y-112935027D01*
X84364138Y-113090427D01*
X84346014Y-113242391D01*
X84314390Y-113377778D01*
X84309263Y-113393615D01*
X84242756Y-113544952D01*
X84147640Y-113697208D01*
X84032227Y-113838499D01*
X83928847Y-113937363D01*
X83820807Y-114016774D01*
X83687893Y-114096964D01*
X83543537Y-114170991D01*
X83401171Y-114231916D01*
X83284846Y-114270076D01*
X83163755Y-114296076D01*
X83025509Y-114316239D01*
X82884341Y-114329197D01*
X82754481Y-114333584D01*
X82664700Y-114329658D01*
X82532615Y-114316643D01*
X82530424Y-114480360D01*
X82529306Y-114546419D01*
X82527345Y-114643834D01*
X82524713Y-114764898D01*
X82521580Y-114901904D01*
X82518117Y-115047144D01*
X82515770Y-115142308D01*
X82511817Y-115295032D01*
X82508186Y-115413753D01*
X82504353Y-115503535D01*
X82499797Y-115569444D01*
X82493996Y-115616543D01*
X82486426Y-115649897D01*
X82476566Y-115674570D01*
X82463893Y-115695628D01*
X82457806Y-115704333D01*
X82382657Y-115777969D01*
X82287509Y-115823416D01*
X82182168Y-115837755D01*
X82076444Y-115818066D01*
X82076143Y-115817956D01*
X81979610Y-115764834D01*
X81906340Y-115688499D01*
X81865515Y-115602392D01*
X81859692Y-115559300D01*
X81855539Y-115481836D01*
X81852979Y-115374664D01*
X81851934Y-115242449D01*
X81852328Y-115089856D01*
X81854081Y-114921551D01*
X81857118Y-114742198D01*
X81861360Y-114556462D01*
X81866730Y-114369009D01*
X81873151Y-114184503D01*
X81880544Y-114007610D01*
X81888833Y-113842994D01*
X81896942Y-113709979D01*
X81903719Y-113601655D01*
X82584338Y-113601655D01*
X82588652Y-113644454D01*
X82597989Y-113661970D01*
X82634212Y-113671317D01*
X82699000Y-113675958D01*
X82782164Y-113676212D01*
X82873515Y-113672399D01*
X82962865Y-113664835D01*
X83040026Y-113653840D01*
X83070703Y-113647193D01*
X83249038Y-113586800D01*
X83401313Y-113504504D01*
X83525153Y-113402668D01*
X83618183Y-113283656D01*
X83678028Y-113149832D01*
X83701504Y-113019433D01*
X83700761Y-112908475D01*
X83678898Y-112819517D01*
X83630804Y-112739686D01*
X83560811Y-112664946D01*
X83427674Y-112558497D01*
X83282456Y-112481789D01*
X83119494Y-112432809D01*
X82933123Y-112409546D01*
X82834350Y-112406923D01*
X82636294Y-112406923D01*
X82622658Y-112802577D01*
X82617369Y-112941989D01*
X82611072Y-113085702D01*
X82604315Y-113222565D01*
X82597643Y-113341426D01*
X82592230Y-113422923D01*
X82585567Y-113529345D01*
X82584338Y-113601655D01*
X81903719Y-113601655D01*
X81906526Y-113556802D01*
X81916580Y-113377378D01*
X81926457Y-113184517D01*
X81935516Y-112991032D01*
X81943109Y-112809737D01*
X81945681Y-112741054D01*
X81951509Y-112596545D01*
X81958223Y-112460184D01*
X81965417Y-112338287D01*
X81972685Y-112237169D01*
X81979622Y-112163146D01*
X81985217Y-112125051D01*
X82018032Y-112017778D01*
X82062718Y-111927061D01*
X82114178Y-111862453D01*
X82133255Y-111847508D01*
X82195253Y-111820784D01*
X82291381Y-111797803D01*
X82416818Y-111779187D01*
X82566741Y-111765558D01*
X82736329Y-111757538D01*
X82845231Y-111755678D01*
X82973275Y-111755580D01*
X83071158Y-111757634D01*
X83071158Y-111757634D01*
G37*
X83071158Y-111757634D02*
X83147769Y-111762608D01*
X83211999Y-111771268D01*
X83272737Y-111784384D01*
X83317215Y-111796419D01*
X83540768Y-111875678D01*
X83744850Y-111978775D01*
X83926059Y-112102796D01*
X84080994Y-112244828D01*
X84206254Y-112401959D01*
X84298436Y-112571276D01*
X84333184Y-112666485D01*
X84358155Y-112789333D01*
X84368329Y-112935027D01*
X84364138Y-113090427D01*
X84346014Y-113242391D01*
X84314390Y-113377778D01*
X84309263Y-113393615D01*
X84242756Y-113544952D01*
X84147640Y-113697208D01*
X84032227Y-113838499D01*
X83928847Y-113937363D01*
X83820807Y-114016774D01*
X83687893Y-114096964D01*
X83543537Y-114170991D01*
X83401171Y-114231916D01*
X83284846Y-114270076D01*
X83163755Y-114296076D01*
X83025509Y-114316239D01*
X82884341Y-114329197D01*
X82754481Y-114333584D01*
X82664700Y-114329658D01*
X82532615Y-114316643D01*
X82530424Y-114480360D01*
X82529306Y-114546419D01*
X82527345Y-114643834D01*
X82524713Y-114764898D01*
X82521580Y-114901904D01*
X82518117Y-115047144D01*
X82515770Y-115142308D01*
X82511817Y-115295032D01*
X82508186Y-115413753D01*
X82504353Y-115503535D01*
X82499797Y-115569444D01*
X82493996Y-115616543D01*
X82486426Y-115649897D01*
X82476566Y-115674570D01*
X82463893Y-115695628D01*
X82457806Y-115704333D01*
X82382657Y-115777969D01*
X82287509Y-115823416D01*
X82182168Y-115837755D01*
X82076444Y-115818066D01*
X82076143Y-115817956D01*
X81979610Y-115764834D01*
X81906340Y-115688499D01*
X81865515Y-115602392D01*
X81859692Y-115559300D01*
X81855539Y-115481836D01*
X81852979Y-115374664D01*
X81851934Y-115242449D01*
X81852328Y-115089856D01*
X81854081Y-114921551D01*
X81857118Y-114742198D01*
X81861360Y-114556462D01*
X81866730Y-114369009D01*
X81873151Y-114184503D01*
X81880544Y-114007610D01*
X81888833Y-113842994D01*
X81896942Y-113709979D01*
X81903719Y-113601655D01*
X82584338Y-113601655D01*
X82588652Y-113644454D01*
X82597989Y-113661970D01*
X82634212Y-113671317D01*
X82699000Y-113675958D01*
X82782164Y-113676212D01*
X82873515Y-113672399D01*
X82962865Y-113664835D01*
X83040026Y-113653840D01*
X83070703Y-113647193D01*
X83249038Y-113586800D01*
X83401313Y-113504504D01*
X83525153Y-113402668D01*
X83618183Y-113283656D01*
X83678028Y-113149832D01*
X83701504Y-113019433D01*
X83700761Y-112908475D01*
X83678898Y-112819517D01*
X83630804Y-112739686D01*
X83560811Y-112664946D01*
X83427674Y-112558497D01*
X83282456Y-112481789D01*
X83119494Y-112432809D01*
X82933123Y-112409546D01*
X82834350Y-112406923D01*
X82636294Y-112406923D01*
X82622658Y-112802577D01*
X82617369Y-112941989D01*
X82611072Y-113085702D01*
X82604315Y-113222565D01*
X82597643Y-113341426D01*
X82592230Y-113422923D01*
X82585567Y-113529345D01*
X82584338Y-113601655D01*
X81903719Y-113601655D01*
X81906526Y-113556802D01*
X81916580Y-113377378D01*
X81926457Y-113184517D01*
X81935516Y-112991032D01*
X81943109Y-112809737D01*
X81945681Y-112741054D01*
X81951509Y-112596545D01*
X81958223Y-112460184D01*
X81965417Y-112338287D01*
X81972685Y-112237169D01*
X81979622Y-112163146D01*
X81985217Y-112125051D01*
X82018032Y-112017778D01*
X82062718Y-111927061D01*
X82114178Y-111862453D01*
X82133255Y-111847508D01*
X82195253Y-111820784D01*
X82291381Y-111797803D01*
X82416818Y-111779187D01*
X82566741Y-111765558D01*
X82736329Y-111757538D01*
X82845231Y-111755678D01*
X82973275Y-111755580D01*
X83071158Y-111757634D01*
G36*
X80257619Y-111757634D02*
X80334230Y-111762608D01*
X80398460Y-111771268D01*
X80459199Y-111784384D01*
X80503676Y-111796419D01*
X80727230Y-111875678D01*
X80931312Y-111978775D01*
X81112521Y-112102796D01*
X81267456Y-112244828D01*
X81392715Y-112401959D01*
X81484898Y-112571276D01*
X81519645Y-112666485D01*
X81544617Y-112789333D01*
X81554790Y-112935027D01*
X81550599Y-113090427D01*
X81532476Y-113242391D01*
X81500852Y-113377778D01*
X81495725Y-113393615D01*
X81429217Y-113544952D01*
X81334101Y-113697208D01*
X81218689Y-113838499D01*
X81115308Y-113937363D01*
X81007269Y-114016774D01*
X80874354Y-114096964D01*
X80729998Y-114170991D01*
X80587632Y-114231916D01*
X80471308Y-114270076D01*
X80350217Y-114296076D01*
X80211971Y-114316239D01*
X80070802Y-114329197D01*
X79940942Y-114333584D01*
X79851162Y-114329658D01*
X79719077Y-114316643D01*
X79716885Y-114480360D01*
X79715767Y-114546419D01*
X79713807Y-114643834D01*
X79711175Y-114764898D01*
X79708042Y-114901904D01*
X79704579Y-115047144D01*
X79702231Y-115142308D01*
X79698279Y-115295032D01*
X79694647Y-115413753D01*
X79690815Y-115503535D01*
X79686259Y-115569444D01*
X79680457Y-115616543D01*
X79672888Y-115649897D01*
X79663028Y-115674570D01*
X79650355Y-115695628D01*
X79644267Y-115704333D01*
X79569119Y-115777969D01*
X79473970Y-115823416D01*
X79368630Y-115837755D01*
X79262905Y-115818066D01*
X79262605Y-115817956D01*
X79166072Y-115764834D01*
X79092801Y-115688499D01*
X79051976Y-115602392D01*
X79046153Y-115559300D01*
X79042000Y-115481836D01*
X79039440Y-115374664D01*
X79038396Y-115242449D01*
X79038789Y-115089856D01*
X79040543Y-114921551D01*
X79043579Y-114742198D01*
X79047822Y-114556462D01*
X79053192Y-114369009D01*
X79059612Y-114184503D01*
X79067006Y-114007610D01*
X79075295Y-113842994D01*
X79083404Y-113709979D01*
X79090181Y-113601655D01*
X79770800Y-113601655D01*
X79775114Y-113644454D01*
X79784450Y-113661970D01*
X79820674Y-113671317D01*
X79885462Y-113675958D01*
X79968626Y-113676212D01*
X80059977Y-113672399D01*
X80149327Y-113664835D01*
X80226488Y-113653840D01*
X80257164Y-113647193D01*
X80435499Y-113586800D01*
X80587775Y-113504504D01*
X80711615Y-113402668D01*
X80804645Y-113283656D01*
X80864489Y-113149832D01*
X80887965Y-113019433D01*
X80887223Y-112908475D01*
X80865359Y-112819517D01*
X80817266Y-112739686D01*
X80747272Y-112664946D01*
X80614135Y-112558497D01*
X80468918Y-112481789D01*
X80305956Y-112432809D01*
X80119585Y-112409546D01*
X80020811Y-112406923D01*
X79822756Y-112406923D01*
X79809119Y-112802577D01*
X79803831Y-112941989D01*
X79797534Y-113085702D01*
X79790776Y-113222565D01*
X79784105Y-113341426D01*
X79778692Y-113422923D01*
X79772029Y-113529345D01*
X79770800Y-113601655D01*
X79090181Y-113601655D01*
X79092988Y-113556802D01*
X79103041Y-113377378D01*
X79112919Y-113184517D01*
X79121977Y-112991032D01*
X79129571Y-112809737D01*
X79132142Y-112741054D01*
X79137971Y-112596545D01*
X79144684Y-112460184D01*
X79151878Y-112338287D01*
X79159146Y-112237169D01*
X79166084Y-112163146D01*
X79171678Y-112125051D01*
X79204494Y-112017778D01*
X79249179Y-111927061D01*
X79300640Y-111862453D01*
X79319717Y-111847508D01*
X79381715Y-111820784D01*
X79477843Y-111797803D01*
X79603280Y-111779187D01*
X79753203Y-111765558D01*
X79922791Y-111757538D01*
X80031692Y-111755678D01*
X80159737Y-111755580D01*
X80257619Y-111757634D01*
X80257619Y-111757634D01*
G37*
X80257619Y-111757634D02*
X80334230Y-111762608D01*
X80398460Y-111771268D01*
X80459199Y-111784384D01*
X80503676Y-111796419D01*
X80727230Y-111875678D01*
X80931312Y-111978775D01*
X81112521Y-112102796D01*
X81267456Y-112244828D01*
X81392715Y-112401959D01*
X81484898Y-112571276D01*
X81519645Y-112666485D01*
X81544617Y-112789333D01*
X81554790Y-112935027D01*
X81550599Y-113090427D01*
X81532476Y-113242391D01*
X81500852Y-113377778D01*
X81495725Y-113393615D01*
X81429217Y-113544952D01*
X81334101Y-113697208D01*
X81218689Y-113838499D01*
X81115308Y-113937363D01*
X81007269Y-114016774D01*
X80874354Y-114096964D01*
X80729998Y-114170991D01*
X80587632Y-114231916D01*
X80471308Y-114270076D01*
X80350217Y-114296076D01*
X80211971Y-114316239D01*
X80070802Y-114329197D01*
X79940942Y-114333584D01*
X79851162Y-114329658D01*
X79719077Y-114316643D01*
X79716885Y-114480360D01*
X79715767Y-114546419D01*
X79713807Y-114643834D01*
X79711175Y-114764898D01*
X79708042Y-114901904D01*
X79704579Y-115047144D01*
X79702231Y-115142308D01*
X79698279Y-115295032D01*
X79694647Y-115413753D01*
X79690815Y-115503535D01*
X79686259Y-115569444D01*
X79680457Y-115616543D01*
X79672888Y-115649897D01*
X79663028Y-115674570D01*
X79650355Y-115695628D01*
X79644267Y-115704333D01*
X79569119Y-115777969D01*
X79473970Y-115823416D01*
X79368630Y-115837755D01*
X79262905Y-115818066D01*
X79262605Y-115817956D01*
X79166072Y-115764834D01*
X79092801Y-115688499D01*
X79051976Y-115602392D01*
X79046153Y-115559300D01*
X79042000Y-115481836D01*
X79039440Y-115374664D01*
X79038396Y-115242449D01*
X79038789Y-115089856D01*
X79040543Y-114921551D01*
X79043579Y-114742198D01*
X79047822Y-114556462D01*
X79053192Y-114369009D01*
X79059612Y-114184503D01*
X79067006Y-114007610D01*
X79075295Y-113842994D01*
X79083404Y-113709979D01*
X79090181Y-113601655D01*
X79770800Y-113601655D01*
X79775114Y-113644454D01*
X79784450Y-113661970D01*
X79820674Y-113671317D01*
X79885462Y-113675958D01*
X79968626Y-113676212D01*
X80059977Y-113672399D01*
X80149327Y-113664835D01*
X80226488Y-113653840D01*
X80257164Y-113647193D01*
X80435499Y-113586800D01*
X80587775Y-113504504D01*
X80711615Y-113402668D01*
X80804645Y-113283656D01*
X80864489Y-113149832D01*
X80887965Y-113019433D01*
X80887223Y-112908475D01*
X80865359Y-112819517D01*
X80817266Y-112739686D01*
X80747272Y-112664946D01*
X80614135Y-112558497D01*
X80468918Y-112481789D01*
X80305956Y-112432809D01*
X80119585Y-112409546D01*
X80020811Y-112406923D01*
X79822756Y-112406923D01*
X79809119Y-112802577D01*
X79803831Y-112941989D01*
X79797534Y-113085702D01*
X79790776Y-113222565D01*
X79784105Y-113341426D01*
X79778692Y-113422923D01*
X79772029Y-113529345D01*
X79770800Y-113601655D01*
X79090181Y-113601655D01*
X79092988Y-113556802D01*
X79103041Y-113377378D01*
X79112919Y-113184517D01*
X79121977Y-112991032D01*
X79129571Y-112809737D01*
X79132142Y-112741054D01*
X79137971Y-112596545D01*
X79144684Y-112460184D01*
X79151878Y-112338287D01*
X79159146Y-112237169D01*
X79166084Y-112163146D01*
X79171678Y-112125051D01*
X79204494Y-112017778D01*
X79249179Y-111927061D01*
X79300640Y-111862453D01*
X79319717Y-111847508D01*
X79381715Y-111820784D01*
X79477843Y-111797803D01*
X79603280Y-111779187D01*
X79753203Y-111765558D01*
X79922791Y-111757538D01*
X80031692Y-111755678D01*
X80159737Y-111755580D01*
X80257619Y-111757634D01*
G36*
X77592332Y-112004600D02*
X77673479Y-112051811D01*
X77744570Y-112122096D01*
X77798333Y-112210724D01*
X77812576Y-112247829D01*
X77825822Y-112296246D01*
X77844459Y-112374994D01*
X77866700Y-112475993D01*
X77890762Y-112591161D01*
X77912451Y-112700000D01*
X77942834Y-112852284D01*
X77980563Y-113035141D01*
X78024014Y-113241109D01*
X78071565Y-113462727D01*
X78121590Y-113692535D01*
X78172467Y-113923070D01*
X78222572Y-114146872D01*
X78270281Y-114356480D01*
X78312070Y-114536360D01*
X78359133Y-114720347D01*
X78411958Y-114899389D01*
X78466347Y-115059685D01*
X78490409Y-115122514D01*
X78549365Y-115281709D01*
X78586347Y-115413054D01*
X78601400Y-115520981D01*
X78594574Y-115609919D01*
X78565914Y-115684301D01*
X78515468Y-115748556D01*
X78497264Y-115765496D01*
X78424220Y-115814381D01*
X78338170Y-115850117D01*
X78258060Y-115864964D01*
X78253692Y-115865022D01*
X78219538Y-115855405D01*
X78169536Y-115831338D01*
X78151905Y-115821151D01*
X78091045Y-115774897D01*
X78035428Y-115718100D01*
X78028208Y-115708905D01*
X77961223Y-115605384D01*
X77890865Y-115471386D01*
X77820602Y-115314908D01*
X77753903Y-115143947D01*
X77694237Y-114966498D01*
X77668902Y-114880614D01*
X77613478Y-114683154D01*
X77547701Y-114684191D01*
X77496425Y-114686638D01*
X77413767Y-114692477D01*
X77307209Y-114701021D01*
X77184232Y-114711583D01*
X77052318Y-114723473D01*
X76918947Y-114736006D01*
X76791601Y-114748493D01*
X76677762Y-114760247D01*
X76584911Y-114770580D01*
X76524539Y-114778229D01*
X76368231Y-114800385D01*
X76153308Y-115236134D01*
X76076653Y-115388583D01*
X76008376Y-115518405D01*
X75950315Y-115622307D01*
X75904310Y-115696999D01*
X75872356Y-115739030D01*
X75796162Y-115796634D01*
X75706766Y-115834584D01*
X75635539Y-115845474D01*
X75541112Y-115828859D01*
X75447620Y-115784117D01*
X75365491Y-115718902D01*
X75305152Y-115640867D01*
X75282380Y-115586247D01*
X75274837Y-115538230D01*
X75277716Y-115482304D01*
X75292465Y-115413951D01*
X75320535Y-115328658D01*
X75363376Y-115221907D01*
X75422438Y-115089184D01*
X75484517Y-114956692D01*
X75536464Y-114846502D01*
X75573519Y-114764139D01*
X75598055Y-114702380D01*
X75612449Y-114653998D01*
X75619077Y-114611767D01*
X75620313Y-114568461D01*
X75619700Y-114545474D01*
X75623899Y-114457315D01*
X75648141Y-114393727D01*
X75698739Y-114345191D01*
X75780560Y-114302804D01*
X75809004Y-114288894D01*
X75835225Y-114270427D01*
X75862690Y-114242810D01*
X75894863Y-114201448D01*
X75914977Y-114171685D01*
X76722611Y-114171685D01*
X76784591Y-114159289D01*
X76826852Y-114153199D01*
X76898737Y-114145287D01*
X76990892Y-114136492D01*
X77093960Y-114127755D01*
X77115401Y-114126070D01*
X77217132Y-114117807D01*
X77307511Y-114109757D01*
X77378019Y-114102729D01*
X77420135Y-114097533D01*
X77425104Y-114096642D01*
X77438756Y-114092782D01*
X77447870Y-114084482D01*
X77452018Y-114066696D01*
X77450769Y-114034375D01*
X77443694Y-113982475D01*
X77430363Y-113905947D01*
X77410347Y-113799745D01*
X77391493Y-113701749D01*
X77362828Y-113553340D01*
X77340504Y-113439095D01*
X77323483Y-113354806D01*
X77310728Y-113296263D01*
X77301200Y-113259257D01*
X77293864Y-113239577D01*
X77287681Y-113233016D01*
X77281613Y-113235362D01*
X77277529Y-113239366D01*
X77263286Y-113260619D01*
X77232414Y-113310676D01*
X77187906Y-113384550D01*
X77132755Y-113477251D01*
X77069954Y-113583791D01*
X77032574Y-113647615D01*
X76964886Y-113763316D01*
X76901518Y-113871378D01*
X76845896Y-113965979D01*
X76801448Y-114041292D01*
X76771602Y-114091493D01*
X76763422Y-114105035D01*
X76722611Y-114171685D01*
X75914977Y-114171685D01*
X75935211Y-114141746D01*
X75987198Y-114059109D01*
X76054290Y-113948944D01*
X76081575Y-113903709D01*
X76244135Y-113636995D01*
X76402688Y-113383016D01*
X76555786Y-113143820D01*
X76701980Y-112921458D01*
X76839820Y-112717977D01*
X76967857Y-112535427D01*
X77084643Y-112375856D01*
X77188728Y-112241315D01*
X77278664Y-112133851D01*
X77353002Y-112055515D01*
X77410293Y-112008354D01*
X77428962Y-111998320D01*
X77508402Y-111985193D01*
X77592332Y-112004600D01*
X77592332Y-112004600D01*
G37*
X77592332Y-112004600D02*
X77673479Y-112051811D01*
X77744570Y-112122096D01*
X77798333Y-112210724D01*
X77812576Y-112247829D01*
X77825822Y-112296246D01*
X77844459Y-112374994D01*
X77866700Y-112475993D01*
X77890762Y-112591161D01*
X77912451Y-112700000D01*
X77942834Y-112852284D01*
X77980563Y-113035141D01*
X78024014Y-113241109D01*
X78071565Y-113462727D01*
X78121590Y-113692535D01*
X78172467Y-113923070D01*
X78222572Y-114146872D01*
X78270281Y-114356480D01*
X78312070Y-114536360D01*
X78359133Y-114720347D01*
X78411958Y-114899389D01*
X78466347Y-115059685D01*
X78490409Y-115122514D01*
X78549365Y-115281709D01*
X78586347Y-115413054D01*
X78601400Y-115520981D01*
X78594574Y-115609919D01*
X78565914Y-115684301D01*
X78515468Y-115748556D01*
X78497264Y-115765496D01*
X78424220Y-115814381D01*
X78338170Y-115850117D01*
X78258060Y-115864964D01*
X78253692Y-115865022D01*
X78219538Y-115855405D01*
X78169536Y-115831338D01*
X78151905Y-115821151D01*
X78091045Y-115774897D01*
X78035428Y-115718100D01*
X78028208Y-115708905D01*
X77961223Y-115605384D01*
X77890865Y-115471386D01*
X77820602Y-115314908D01*
X77753903Y-115143947D01*
X77694237Y-114966498D01*
X77668902Y-114880614D01*
X77613478Y-114683154D01*
X77547701Y-114684191D01*
X77496425Y-114686638D01*
X77413767Y-114692477D01*
X77307209Y-114701021D01*
X77184232Y-114711583D01*
X77052318Y-114723473D01*
X76918947Y-114736006D01*
X76791601Y-114748493D01*
X76677762Y-114760247D01*
X76584911Y-114770580D01*
X76524539Y-114778229D01*
X76368231Y-114800385D01*
X76153308Y-115236134D01*
X76076653Y-115388583D01*
X76008376Y-115518405D01*
X75950315Y-115622307D01*
X75904310Y-115696999D01*
X75872356Y-115739030D01*
X75796162Y-115796634D01*
X75706766Y-115834584D01*
X75635539Y-115845474D01*
X75541112Y-115828859D01*
X75447620Y-115784117D01*
X75365491Y-115718902D01*
X75305152Y-115640867D01*
X75282380Y-115586247D01*
X75274837Y-115538230D01*
X75277716Y-115482304D01*
X75292465Y-115413951D01*
X75320535Y-115328658D01*
X75363376Y-115221907D01*
X75422438Y-115089184D01*
X75484517Y-114956692D01*
X75536464Y-114846502D01*
X75573519Y-114764139D01*
X75598055Y-114702380D01*
X75612449Y-114653998D01*
X75619077Y-114611767D01*
X75620313Y-114568461D01*
X75619700Y-114545474D01*
X75623899Y-114457315D01*
X75648141Y-114393727D01*
X75698739Y-114345191D01*
X75780560Y-114302804D01*
X75809004Y-114288894D01*
X75835225Y-114270427D01*
X75862690Y-114242810D01*
X75894863Y-114201448D01*
X75914977Y-114171685D01*
X76722611Y-114171685D01*
X76784591Y-114159289D01*
X76826852Y-114153199D01*
X76898737Y-114145287D01*
X76990892Y-114136492D01*
X77093960Y-114127755D01*
X77115401Y-114126070D01*
X77217132Y-114117807D01*
X77307511Y-114109757D01*
X77378019Y-114102729D01*
X77420135Y-114097533D01*
X77425104Y-114096642D01*
X77438756Y-114092782D01*
X77447870Y-114084482D01*
X77452018Y-114066696D01*
X77450769Y-114034375D01*
X77443694Y-113982475D01*
X77430363Y-113905947D01*
X77410347Y-113799745D01*
X77391493Y-113701749D01*
X77362828Y-113553340D01*
X77340504Y-113439095D01*
X77323483Y-113354806D01*
X77310728Y-113296263D01*
X77301200Y-113259257D01*
X77293864Y-113239577D01*
X77287681Y-113233016D01*
X77281613Y-113235362D01*
X77277529Y-113239366D01*
X77263286Y-113260619D01*
X77232414Y-113310676D01*
X77187906Y-113384550D01*
X77132755Y-113477251D01*
X77069954Y-113583791D01*
X77032574Y-113647615D01*
X76964886Y-113763316D01*
X76901518Y-113871378D01*
X76845896Y-113965979D01*
X76801448Y-114041292D01*
X76771602Y-114091493D01*
X76763422Y-114105035D01*
X76722611Y-114171685D01*
X75914977Y-114171685D01*
X75935211Y-114141746D01*
X75987198Y-114059109D01*
X76054290Y-113948944D01*
X76081575Y-113903709D01*
X76244135Y-113636995D01*
X76402688Y-113383016D01*
X76555786Y-113143820D01*
X76701980Y-112921458D01*
X76839820Y-112717977D01*
X76967857Y-112535427D01*
X77084643Y-112375856D01*
X77188728Y-112241315D01*
X77278664Y-112133851D01*
X77353002Y-112055515D01*
X77410293Y-112008354D01*
X77428962Y-111998320D01*
X77508402Y-111985193D01*
X77592332Y-112004600D01*
G36*
X94594406Y-111833040D02*
X94721085Y-111840147D01*
X94846751Y-111849452D01*
X95036780Y-111865435D01*
X95194378Y-111881818D01*
X95326177Y-111900070D01*
X95438807Y-111921660D01*
X95538900Y-111948058D01*
X95633087Y-111980734D01*
X95727999Y-112021158D01*
X95818314Y-112064771D01*
X96027340Y-112180735D01*
X96222354Y-112310441D01*
X96397518Y-112449181D01*
X96546997Y-112592241D01*
X96664956Y-112734912D01*
X96685426Y-112764760D01*
X96787149Y-112948871D01*
X96853609Y-113136709D01*
X96885068Y-113324660D01*
X96881786Y-113509106D01*
X96844025Y-113686433D01*
X96772045Y-113853024D01*
X96666109Y-114005264D01*
X96590066Y-114084764D01*
X96479799Y-114176845D01*
X96351751Y-114266133D01*
X96219230Y-114344241D01*
X96095545Y-114402784D01*
X96069855Y-114412561D01*
X96016393Y-114433715D01*
X95982239Y-114450942D01*
X95975543Y-114457437D01*
X95991482Y-114471252D01*
X96034105Y-114499920D01*
X96096247Y-114538769D01*
X96146505Y-114568918D01*
X96297087Y-114662819D01*
X96445845Y-114764810D01*
X96588462Y-114871170D01*
X96720620Y-114978180D01*
X96838002Y-115082120D01*
X96936290Y-115179270D01*
X97011167Y-115265911D01*
X97058317Y-115338322D01*
X97068807Y-115363580D01*
X97084567Y-115470245D01*
X97066564Y-115571878D01*
X97020108Y-115662942D01*
X96950511Y-115737903D01*
X96863083Y-115791225D01*
X96763135Y-115817371D01*
X96655978Y-115810807D01*
X96642872Y-115807554D01*
X96587783Y-115782698D01*
X96510780Y-115731441D01*
X96410295Y-115652676D01*
X96343275Y-115596221D01*
X96081365Y-115382434D01*
X95828100Y-115199588D01*
X95575905Y-115043076D01*
X95317200Y-114908290D01*
X95044409Y-114790620D01*
X94974584Y-114763884D01*
X94893378Y-114734265D01*
X94824895Y-114710709D01*
X94777942Y-114696164D01*
X94762627Y-114692923D01*
X94750213Y-114708350D01*
X94748107Y-114756652D01*
X94751937Y-114805269D01*
X94755992Y-114861706D01*
X94760012Y-114948369D01*
X94763689Y-115056409D01*
X94766714Y-115176976D01*
X94768509Y-115280304D01*
X94773462Y-115642992D01*
X94721474Y-115721750D01*
X94647841Y-115799791D01*
X94552058Y-115852152D01*
X94444012Y-115875525D01*
X94333594Y-115866601D01*
X94309125Y-115859705D01*
X94230824Y-115820613D01*
X94158404Y-115761034D01*
X94105785Y-115693221D01*
X94095262Y-115671436D01*
X94091150Y-115640916D01*
X94087608Y-115571331D01*
X94084636Y-115462685D01*
X94082234Y-115314987D01*
X94080402Y-115128243D01*
X94079140Y-114902459D01*
X94078449Y-114637642D01*
X94078327Y-114333799D01*
X94078776Y-113990936D01*
X94078919Y-113924673D01*
X94079595Y-113615724D01*
X94080257Y-113343364D01*
X94081088Y-113105103D01*
X94082270Y-112898453D01*
X94083986Y-112720925D01*
X94086417Y-112570032D01*
X94087109Y-112543692D01*
X94763692Y-112543692D01*
X94763692Y-113936397D01*
X95081192Y-113925591D01*
X95237082Y-113918366D01*
X95362423Y-113907917D01*
X95465677Y-113893318D01*
X95555000Y-113873721D01*
X95711170Y-113825214D01*
X95839669Y-113766916D01*
X95951727Y-113692729D01*
X96050719Y-113604435D01*
X96175207Y-113480411D01*
X96166545Y-113378398D01*
X96150643Y-113282759D01*
X96117191Y-113196160D01*
X96061321Y-113109843D01*
X95978162Y-113015051D01*
X95946818Y-112983308D01*
X95765917Y-112830883D01*
X95562883Y-112709130D01*
X95341683Y-112619632D01*
X95106280Y-112563976D01*
X94860640Y-112543746D01*
X94847243Y-112543692D01*
X94763692Y-112543692D01*
X94087109Y-112543692D01*
X94089747Y-112443284D01*
X94094157Y-112338192D01*
X94099830Y-112252270D01*
X94106948Y-112183027D01*
X94115694Y-112127976D01*
X94126250Y-112084628D01*
X94138798Y-112050494D01*
X94153522Y-112023086D01*
X94170602Y-111999916D01*
X94190222Y-111978495D01*
X94212564Y-111956334D01*
X94223998Y-111945014D01*
X94268607Y-111903455D01*
X94312263Y-111872252D01*
X94360818Y-111850507D01*
X94420125Y-111837322D01*
X94496037Y-111831799D01*
X94594406Y-111833040D01*
X94594406Y-111833040D01*
G37*
X94594406Y-111833040D02*
X94721085Y-111840147D01*
X94846751Y-111849452D01*
X95036780Y-111865435D01*
X95194378Y-111881818D01*
X95326177Y-111900070D01*
X95438807Y-111921660D01*
X95538900Y-111948058D01*
X95633087Y-111980734D01*
X95727999Y-112021158D01*
X95818314Y-112064771D01*
X96027340Y-112180735D01*
X96222354Y-112310441D01*
X96397518Y-112449181D01*
X96546997Y-112592241D01*
X96664956Y-112734912D01*
X96685426Y-112764760D01*
X96787149Y-112948871D01*
X96853609Y-113136709D01*
X96885068Y-113324660D01*
X96881786Y-113509106D01*
X96844025Y-113686433D01*
X96772045Y-113853024D01*
X96666109Y-114005264D01*
X96590066Y-114084764D01*
X96479799Y-114176845D01*
X96351751Y-114266133D01*
X96219230Y-114344241D01*
X96095545Y-114402784D01*
X96069855Y-114412561D01*
X96016393Y-114433715D01*
X95982239Y-114450942D01*
X95975543Y-114457437D01*
X95991482Y-114471252D01*
X96034105Y-114499920D01*
X96096247Y-114538769D01*
X96146505Y-114568918D01*
X96297087Y-114662819D01*
X96445845Y-114764810D01*
X96588462Y-114871170D01*
X96720620Y-114978180D01*
X96838002Y-115082120D01*
X96936290Y-115179270D01*
X97011167Y-115265911D01*
X97058317Y-115338322D01*
X97068807Y-115363580D01*
X97084567Y-115470245D01*
X97066564Y-115571878D01*
X97020108Y-115662942D01*
X96950511Y-115737903D01*
X96863083Y-115791225D01*
X96763135Y-115817371D01*
X96655978Y-115810807D01*
X96642872Y-115807554D01*
X96587783Y-115782698D01*
X96510780Y-115731441D01*
X96410295Y-115652676D01*
X96343275Y-115596221D01*
X96081365Y-115382434D01*
X95828100Y-115199588D01*
X95575905Y-115043076D01*
X95317200Y-114908290D01*
X95044409Y-114790620D01*
X94974584Y-114763884D01*
X94893378Y-114734265D01*
X94824895Y-114710709D01*
X94777942Y-114696164D01*
X94762627Y-114692923D01*
X94750213Y-114708350D01*
X94748107Y-114756652D01*
X94751937Y-114805269D01*
X94755992Y-114861706D01*
X94760012Y-114948369D01*
X94763689Y-115056409D01*
X94766714Y-115176976D01*
X94768509Y-115280304D01*
X94773462Y-115642992D01*
X94721474Y-115721750D01*
X94647841Y-115799791D01*
X94552058Y-115852152D01*
X94444012Y-115875525D01*
X94333594Y-115866601D01*
X94309125Y-115859705D01*
X94230824Y-115820613D01*
X94158404Y-115761034D01*
X94105785Y-115693221D01*
X94095262Y-115671436D01*
X94091150Y-115640916D01*
X94087608Y-115571331D01*
X94084636Y-115462685D01*
X94082234Y-115314987D01*
X94080402Y-115128243D01*
X94079140Y-114902459D01*
X94078449Y-114637642D01*
X94078327Y-114333799D01*
X94078776Y-113990936D01*
X94078919Y-113924673D01*
X94079595Y-113615724D01*
X94080257Y-113343364D01*
X94081088Y-113105103D01*
X94082270Y-112898453D01*
X94083986Y-112720925D01*
X94086417Y-112570032D01*
X94087109Y-112543692D01*
X94763692Y-112543692D01*
X94763692Y-113936397D01*
X95081192Y-113925591D01*
X95237082Y-113918366D01*
X95362423Y-113907917D01*
X95465677Y-113893318D01*
X95555000Y-113873721D01*
X95711170Y-113825214D01*
X95839669Y-113766916D01*
X95951727Y-113692729D01*
X96050719Y-113604435D01*
X96175207Y-113480411D01*
X96166545Y-113378398D01*
X96150643Y-113282759D01*
X96117191Y-113196160D01*
X96061321Y-113109843D01*
X95978162Y-113015051D01*
X95946818Y-112983308D01*
X95765917Y-112830883D01*
X95562883Y-112709130D01*
X95341683Y-112619632D01*
X95106280Y-112563976D01*
X94860640Y-112543746D01*
X94847243Y-112543692D01*
X94763692Y-112543692D01*
X94087109Y-112543692D01*
X94089747Y-112443284D01*
X94094157Y-112338192D01*
X94099830Y-112252270D01*
X94106948Y-112183027D01*
X94115694Y-112127976D01*
X94126250Y-112084628D01*
X94138798Y-112050494D01*
X94153522Y-112023086D01*
X94170602Y-111999916D01*
X94190222Y-111978495D01*
X94212564Y-111956334D01*
X94223998Y-111945014D01*
X94268607Y-111903455D01*
X94312263Y-111872252D01*
X94360818Y-111850507D01*
X94420125Y-111837322D01*
X94496037Y-111831799D01*
X94594406Y-111833040D01*
G36*
X71833350Y-111800647D02*
X71940963Y-111847376D01*
X71947109Y-111851307D01*
X71995184Y-111886116D01*
X72030754Y-111923083D01*
X72055565Y-111968494D01*
X72071362Y-112028635D01*
X72079891Y-112109793D01*
X72082896Y-112218254D01*
X72082390Y-112338538D01*
X72080440Y-112461769D01*
X72077320Y-112601632D01*
X72073234Y-112752835D01*
X72068384Y-112910085D01*
X72062976Y-113068092D01*
X72057211Y-113221562D01*
X72051295Y-113365205D01*
X72045430Y-113493729D01*
X72039819Y-113601840D01*
X72034668Y-113684248D01*
X72030178Y-113735661D01*
X72028155Y-113748460D01*
X72026838Y-113785134D01*
X72044199Y-113794154D01*
X72070329Y-113790757D01*
X72129360Y-113781205D01*
X72215766Y-113766451D01*
X72324022Y-113747452D01*
X72448605Y-113725161D01*
X72555044Y-113705834D01*
X72817647Y-113658736D01*
X73047457Y-113619523D01*
X73249781Y-113587405D01*
X73429927Y-113561588D01*
X73593203Y-113541280D01*
X73744917Y-113525690D01*
X73786928Y-113521988D01*
X73877563Y-113513860D01*
X73952691Y-113506301D01*
X74004499Y-113500154D01*
X74025171Y-113496265D01*
X74025173Y-113496263D01*
X74027467Y-113475944D01*
X74030897Y-113421678D01*
X74035214Y-113338569D01*
X74040169Y-113231723D01*
X74045513Y-113106245D01*
X74050998Y-112967239D01*
X74051178Y-112962500D01*
X74057821Y-112796967D01*
X74064142Y-112664925D01*
X74070663Y-112560802D01*
X74077904Y-112479021D01*
X74086385Y-112414007D01*
X74096626Y-112360186D01*
X74109148Y-112311981D01*
X74113137Y-112298720D01*
X74168501Y-112145977D01*
X74232560Y-112015148D01*
X74302506Y-111910330D01*
X74375530Y-111835621D01*
X74448824Y-111795118D01*
X74460441Y-111792074D01*
X74551681Y-111790434D01*
X74645075Y-111819428D01*
X74730900Y-111872658D01*
X74799430Y-111943722D01*
X74840943Y-112026221D01*
X74845531Y-112045523D01*
X74849192Y-112116657D01*
X74840239Y-112215219D01*
X74828122Y-112288788D01*
X74817662Y-112352286D01*
X74807772Y-112430916D01*
X74798275Y-112527508D01*
X74788990Y-112644894D01*
X74779739Y-112785905D01*
X74770343Y-112953372D01*
X74760624Y-113150126D01*
X74750403Y-113379000D01*
X74739501Y-113642823D01*
X74734281Y-113774816D01*
X74726953Y-113978426D01*
X74722177Y-114157238D01*
X74720094Y-114320149D01*
X74720843Y-114476053D01*
X74724566Y-114633848D01*
X74731402Y-114802428D01*
X74741492Y-114990692D01*
X74754976Y-115207534D01*
X74757487Y-115245922D01*
X74765485Y-115373173D01*
X74770226Y-115468281D01*
X74771550Y-115538058D01*
X74769300Y-115589316D01*
X74763316Y-115628865D01*
X74753441Y-115663518D01*
X74747393Y-115680097D01*
X74691565Y-115777181D01*
X74612279Y-115846779D01*
X74515553Y-115887058D01*
X74407410Y-115896183D01*
X74293869Y-115872321D01*
X74222919Y-115839885D01*
X74172766Y-115808779D01*
X74134169Y-115775003D01*
X74105373Y-115732972D01*
X74084627Y-115677099D01*
X74070177Y-115601800D01*
X74060270Y-115501488D01*
X74053153Y-115370579D01*
X74049985Y-115288888D01*
X74045224Y-115135465D01*
X74040990Y-114960723D01*
X74037635Y-114782042D01*
X74035509Y-114616805D01*
X74035033Y-114548385D01*
X74033385Y-114179155D01*
X73843423Y-114192508D01*
X73737409Y-114201443D01*
X73612970Y-114214160D01*
X73490310Y-114228524D01*
X73438000Y-114235376D01*
X73373409Y-114244891D01*
X73279984Y-114259558D01*
X73163698Y-114278364D01*
X73030521Y-114300295D01*
X72886426Y-114324338D01*
X72737384Y-114349477D01*
X72589366Y-114374700D01*
X72448344Y-114398992D01*
X72320290Y-114421340D01*
X72211174Y-114440729D01*
X72126969Y-114456147D01*
X72073645Y-114466578D01*
X72064885Y-114468509D01*
X72040644Y-114477974D01*
X72027379Y-114498513D01*
X72021835Y-114539867D01*
X72020756Y-114600488D01*
X72018949Y-114673061D01*
X72014222Y-114769519D01*
X72007388Y-114874849D01*
X72002523Y-114937154D01*
X71994259Y-115044445D01*
X71985433Y-115173822D01*
X71977150Y-115308330D01*
X71970990Y-115421391D01*
X71964570Y-115534091D01*
X71957569Y-115615281D01*
X71948729Y-115672522D01*
X71936792Y-115713377D01*
X71920498Y-115745405D01*
X71915888Y-115752488D01*
X71843270Y-115827288D01*
X71748836Y-115876530D01*
X71642737Y-115897136D01*
X71535124Y-115886023D01*
X71506186Y-115876839D01*
X71405200Y-115821491D01*
X71330800Y-115742286D01*
X71305251Y-115694897D01*
X71293327Y-115657961D01*
X71285361Y-115609575D01*
X71281426Y-115545643D01*
X71281593Y-115462070D01*
X71285931Y-115354762D01*
X71294514Y-115219623D01*
X71307412Y-115052560D01*
X71318771Y-114917615D01*
X71328600Y-114792007D01*
X71337424Y-114653531D01*
X71345373Y-114498564D01*
X71352578Y-114323483D01*
X71359169Y-114124662D01*
X71365277Y-113898479D01*
X71371032Y-113641309D01*
X71376564Y-113349528D01*
X71377832Y-113276385D01*
X71382283Y-113018397D01*
X71386376Y-112796519D01*
X71390400Y-112607790D01*
X71394646Y-112449248D01*
X71399403Y-112317932D01*
X71404960Y-112210880D01*
X71411606Y-112125130D01*
X71419631Y-112057722D01*
X71429325Y-112005693D01*
X71440977Y-111966083D01*
X71454876Y-111935929D01*
X71471311Y-111912270D01*
X71490573Y-111892145D01*
X71512950Y-111872592D01*
X71515215Y-111870685D01*
X71612731Y-111812649D01*
X71721357Y-111789187D01*
X71833350Y-111800647D01*
X71833350Y-111800647D01*
G37*
X71833350Y-111800647D02*
X71940963Y-111847376D01*
X71947109Y-111851307D01*
X71995184Y-111886116D01*
X72030754Y-111923083D01*
X72055565Y-111968494D01*
X72071362Y-112028635D01*
X72079891Y-112109793D01*
X72082896Y-112218254D01*
X72082390Y-112338538D01*
X72080440Y-112461769D01*
X72077320Y-112601632D01*
X72073234Y-112752835D01*
X72068384Y-112910085D01*
X72062976Y-113068092D01*
X72057211Y-113221562D01*
X72051295Y-113365205D01*
X72045430Y-113493729D01*
X72039819Y-113601840D01*
X72034668Y-113684248D01*
X72030178Y-113735661D01*
X72028155Y-113748460D01*
X72026838Y-113785134D01*
X72044199Y-113794154D01*
X72070329Y-113790757D01*
X72129360Y-113781205D01*
X72215766Y-113766451D01*
X72324022Y-113747452D01*
X72448605Y-113725161D01*
X72555044Y-113705834D01*
X72817647Y-113658736D01*
X73047457Y-113619523D01*
X73249781Y-113587405D01*
X73429927Y-113561588D01*
X73593203Y-113541280D01*
X73744917Y-113525690D01*
X73786928Y-113521988D01*
X73877563Y-113513860D01*
X73952691Y-113506301D01*
X74004499Y-113500154D01*
X74025171Y-113496265D01*
X74025173Y-113496263D01*
X74027467Y-113475944D01*
X74030897Y-113421678D01*
X74035214Y-113338569D01*
X74040169Y-113231723D01*
X74045513Y-113106245D01*
X74050998Y-112967239D01*
X74051178Y-112962500D01*
X74057821Y-112796967D01*
X74064142Y-112664925D01*
X74070663Y-112560802D01*
X74077904Y-112479021D01*
X74086385Y-112414007D01*
X74096626Y-112360186D01*
X74109148Y-112311981D01*
X74113137Y-112298720D01*
X74168501Y-112145977D01*
X74232560Y-112015148D01*
X74302506Y-111910330D01*
X74375530Y-111835621D01*
X74448824Y-111795118D01*
X74460441Y-111792074D01*
X74551681Y-111790434D01*
X74645075Y-111819428D01*
X74730900Y-111872658D01*
X74799430Y-111943722D01*
X74840943Y-112026221D01*
X74845531Y-112045523D01*
X74849192Y-112116657D01*
X74840239Y-112215219D01*
X74828122Y-112288788D01*
X74817662Y-112352286D01*
X74807772Y-112430916D01*
X74798275Y-112527508D01*
X74788990Y-112644894D01*
X74779739Y-112785905D01*
X74770343Y-112953372D01*
X74760624Y-113150126D01*
X74750403Y-113379000D01*
X74739501Y-113642823D01*
X74734281Y-113774816D01*
X74726953Y-113978426D01*
X74722177Y-114157238D01*
X74720094Y-114320149D01*
X74720843Y-114476053D01*
X74724566Y-114633848D01*
X74731402Y-114802428D01*
X74741492Y-114990692D01*
X74754976Y-115207534D01*
X74757487Y-115245922D01*
X74765485Y-115373173D01*
X74770226Y-115468281D01*
X74771550Y-115538058D01*
X74769300Y-115589316D01*
X74763316Y-115628865D01*
X74753441Y-115663518D01*
X74747393Y-115680097D01*
X74691565Y-115777181D01*
X74612279Y-115846779D01*
X74515553Y-115887058D01*
X74407410Y-115896183D01*
X74293869Y-115872321D01*
X74222919Y-115839885D01*
X74172766Y-115808779D01*
X74134169Y-115775003D01*
X74105373Y-115732972D01*
X74084627Y-115677099D01*
X74070177Y-115601800D01*
X74060270Y-115501488D01*
X74053153Y-115370579D01*
X74049985Y-115288888D01*
X74045224Y-115135465D01*
X74040990Y-114960723D01*
X74037635Y-114782042D01*
X74035509Y-114616805D01*
X74035033Y-114548385D01*
X74033385Y-114179155D01*
X73843423Y-114192508D01*
X73737409Y-114201443D01*
X73612970Y-114214160D01*
X73490310Y-114228524D01*
X73438000Y-114235376D01*
X73373409Y-114244891D01*
X73279984Y-114259558D01*
X73163698Y-114278364D01*
X73030521Y-114300295D01*
X72886426Y-114324338D01*
X72737384Y-114349477D01*
X72589366Y-114374700D01*
X72448344Y-114398992D01*
X72320290Y-114421340D01*
X72211174Y-114440729D01*
X72126969Y-114456147D01*
X72073645Y-114466578D01*
X72064885Y-114468509D01*
X72040644Y-114477974D01*
X72027379Y-114498513D01*
X72021835Y-114539867D01*
X72020756Y-114600488D01*
X72018949Y-114673061D01*
X72014222Y-114769519D01*
X72007388Y-114874849D01*
X72002523Y-114937154D01*
X71994259Y-115044445D01*
X71985433Y-115173822D01*
X71977150Y-115308330D01*
X71970990Y-115421391D01*
X71964570Y-115534091D01*
X71957569Y-115615281D01*
X71948729Y-115672522D01*
X71936792Y-115713377D01*
X71920498Y-115745405D01*
X71915888Y-115752488D01*
X71843270Y-115827288D01*
X71748836Y-115876530D01*
X71642737Y-115897136D01*
X71535124Y-115886023D01*
X71506186Y-115876839D01*
X71405200Y-115821491D01*
X71330800Y-115742286D01*
X71305251Y-115694897D01*
X71293327Y-115657961D01*
X71285361Y-115609575D01*
X71281426Y-115545643D01*
X71281593Y-115462070D01*
X71285931Y-115354762D01*
X71294514Y-115219623D01*
X71307412Y-115052560D01*
X71318771Y-114917615D01*
X71328600Y-114792007D01*
X71337424Y-114653531D01*
X71345373Y-114498564D01*
X71352578Y-114323483D01*
X71359169Y-114124662D01*
X71365277Y-113898479D01*
X71371032Y-113641309D01*
X71376564Y-113349528D01*
X71377832Y-113276385D01*
X71382283Y-113018397D01*
X71386376Y-112796519D01*
X71390400Y-112607790D01*
X71394646Y-112449248D01*
X71399403Y-112317932D01*
X71404960Y-112210880D01*
X71411606Y-112125130D01*
X71419631Y-112057722D01*
X71429325Y-112005693D01*
X71440977Y-111966083D01*
X71454876Y-111935929D01*
X71471311Y-111912270D01*
X71490573Y-111892145D01*
X71512950Y-111872592D01*
X71515215Y-111870685D01*
X71612731Y-111812649D01*
X71721357Y-111789187D01*
X71833350Y-111800647D01*
G36*
X106156886Y-112038942D02*
X106425030Y-112085533D01*
X106682841Y-112161614D01*
X106836529Y-112223650D01*
X106951622Y-112288992D01*
X107028484Y-112357930D01*
X107067481Y-112430754D01*
X107072923Y-112471774D01*
X107056547Y-112558343D01*
X107012864Y-112647029D01*
X106950046Y-112723565D01*
X106910739Y-112755020D01*
X106861591Y-112783736D01*
X106814463Y-112799234D01*
X106754397Y-112804947D01*
X106693298Y-112804901D01*
X106613146Y-112799741D01*
X106510941Y-112787974D01*
X106402740Y-112771620D01*
X106344124Y-112760940D01*
X106109750Y-112727784D01*
X105894765Y-112725216D01*
X105693513Y-112753826D01*
X105500339Y-112814203D01*
X105398665Y-112859597D01*
X105267648Y-112934675D01*
X105166500Y-113014786D01*
X105096457Y-113097191D01*
X105058756Y-113179151D01*
X105054632Y-113257927D01*
X105085322Y-113330782D01*
X105152061Y-113394977D01*
X105155856Y-113397566D01*
X105196072Y-113422276D01*
X105238818Y-113442155D01*
X105289573Y-113458169D01*
X105353812Y-113471289D01*
X105437014Y-113482483D01*
X105544655Y-113492719D01*
X105682213Y-113502967D01*
X105793154Y-113510278D01*
X105995356Y-113524821D01*
X106164335Y-113540893D01*
X106305943Y-113559470D01*
X106426029Y-113581529D01*
X106530445Y-113608046D01*
X106625041Y-113639997D01*
X106664001Y-113655585D01*
X106858230Y-113754583D01*
X107020164Y-113875570D01*
X107149688Y-114018375D01*
X107246688Y-114182827D01*
X107311051Y-114368757D01*
X107342663Y-114575993D01*
X107346173Y-114676211D01*
X107329162Y-114873790D01*
X107277222Y-115054670D01*
X107190051Y-115219349D01*
X107067346Y-115368320D01*
X106908804Y-115502082D01*
X106798145Y-115574179D01*
X106619379Y-115666782D01*
X106413119Y-115750331D01*
X106190579Y-115821129D01*
X105962973Y-115875480D01*
X105802923Y-115902263D01*
X105722399Y-115911016D01*
X105620684Y-115919013D01*
X105506943Y-115925870D01*
X105390338Y-115931205D01*
X105280034Y-115934634D01*
X105185193Y-115935774D01*
X105114981Y-115934243D01*
X105089769Y-115932067D01*
X104901361Y-115902905D01*
X104744773Y-115871278D01*
X104612749Y-115834983D01*
X104498032Y-115791813D01*
X104393367Y-115739563D01*
X104329248Y-115700943D01*
X104179603Y-115587911D01*
X104066932Y-115464080D01*
X103991528Y-115329878D01*
X103953686Y-115185732D01*
X103950188Y-115149125D01*
X103952466Y-115027977D01*
X103978396Y-114932463D01*
X104030336Y-114855455D01*
X104055167Y-114831491D01*
X104154361Y-114767616D01*
X104260917Y-114738908D01*
X104367924Y-114744227D01*
X104468470Y-114782433D01*
X104555645Y-114852384D01*
X104606678Y-114922508D01*
X104687157Y-115037637D01*
X104783506Y-115135017D01*
X104886909Y-115206577D01*
X104945531Y-115232687D01*
X105030512Y-115252576D01*
X105143984Y-115265341D01*
X105276035Y-115271072D01*
X105416751Y-115269859D01*
X105556218Y-115261793D01*
X105684523Y-115246963D01*
X105791753Y-115225461D01*
X105793631Y-115224959D01*
X105987170Y-115164532D01*
X106160909Y-115093509D01*
X106310972Y-115014219D01*
X106433484Y-114928994D01*
X106524567Y-114840162D01*
X106579221Y-114752758D01*
X106597372Y-114668277D01*
X106592263Y-114568075D01*
X106565561Y-114466524D01*
X106539524Y-114410309D01*
X106497370Y-114347855D01*
X106444849Y-114296337D01*
X106377855Y-114254483D01*
X106292284Y-114221022D01*
X106184032Y-114194682D01*
X106048993Y-114174189D01*
X105883064Y-114158273D01*
X105686265Y-114145876D01*
X105489541Y-114133406D01*
X105324634Y-114117699D01*
X105184344Y-114097669D01*
X105061470Y-114072234D01*
X104948811Y-114040308D01*
X104918919Y-114030334D01*
X104725699Y-113950054D01*
X104568215Y-113854716D01*
X104446675Y-113744768D01*
X104361287Y-113620661D01*
X104312262Y-113482844D01*
X104299808Y-113331767D01*
X104324133Y-113167879D01*
X104385448Y-112991630D01*
X104410839Y-112936917D01*
X104480830Y-112820056D01*
X104577979Y-112694866D01*
X104694272Y-112570052D01*
X104821699Y-112454319D01*
X104933372Y-112369179D01*
X105167399Y-112227452D01*
X105405279Y-112123741D01*
X105648496Y-112057870D01*
X105898537Y-112029663D01*
X106156886Y-112038942D01*
X106156886Y-112038942D01*
G37*
X106156886Y-112038942D02*
X106425030Y-112085533D01*
X106682841Y-112161614D01*
X106836529Y-112223650D01*
X106951622Y-112288992D01*
X107028484Y-112357930D01*
X107067481Y-112430754D01*
X107072923Y-112471774D01*
X107056547Y-112558343D01*
X107012864Y-112647029D01*
X106950046Y-112723565D01*
X106910739Y-112755020D01*
X106861591Y-112783736D01*
X106814463Y-112799234D01*
X106754397Y-112804947D01*
X106693298Y-112804901D01*
X106613146Y-112799741D01*
X106510941Y-112787974D01*
X106402740Y-112771620D01*
X106344124Y-112760940D01*
X106109750Y-112727784D01*
X105894765Y-112725216D01*
X105693513Y-112753826D01*
X105500339Y-112814203D01*
X105398665Y-112859597D01*
X105267648Y-112934675D01*
X105166500Y-113014786D01*
X105096457Y-113097191D01*
X105058756Y-113179151D01*
X105054632Y-113257927D01*
X105085322Y-113330782D01*
X105152061Y-113394977D01*
X105155856Y-113397566D01*
X105196072Y-113422276D01*
X105238818Y-113442155D01*
X105289573Y-113458169D01*
X105353812Y-113471289D01*
X105437014Y-113482483D01*
X105544655Y-113492719D01*
X105682213Y-113502967D01*
X105793154Y-113510278D01*
X105995356Y-113524821D01*
X106164335Y-113540893D01*
X106305943Y-113559470D01*
X106426029Y-113581529D01*
X106530445Y-113608046D01*
X106625041Y-113639997D01*
X106664001Y-113655585D01*
X106858230Y-113754583D01*
X107020164Y-113875570D01*
X107149688Y-114018375D01*
X107246688Y-114182827D01*
X107311051Y-114368757D01*
X107342663Y-114575993D01*
X107346173Y-114676211D01*
X107329162Y-114873790D01*
X107277222Y-115054670D01*
X107190051Y-115219349D01*
X107067346Y-115368320D01*
X106908804Y-115502082D01*
X106798145Y-115574179D01*
X106619379Y-115666782D01*
X106413119Y-115750331D01*
X106190579Y-115821129D01*
X105962973Y-115875480D01*
X105802923Y-115902263D01*
X105722399Y-115911016D01*
X105620684Y-115919013D01*
X105506943Y-115925870D01*
X105390338Y-115931205D01*
X105280034Y-115934634D01*
X105185193Y-115935774D01*
X105114981Y-115934243D01*
X105089769Y-115932067D01*
X104901361Y-115902905D01*
X104744773Y-115871278D01*
X104612749Y-115834983D01*
X104498032Y-115791813D01*
X104393367Y-115739563D01*
X104329248Y-115700943D01*
X104179603Y-115587911D01*
X104066932Y-115464080D01*
X103991528Y-115329878D01*
X103953686Y-115185732D01*
X103950188Y-115149125D01*
X103952466Y-115027977D01*
X103978396Y-114932463D01*
X104030336Y-114855455D01*
X104055167Y-114831491D01*
X104154361Y-114767616D01*
X104260917Y-114738908D01*
X104367924Y-114744227D01*
X104468470Y-114782433D01*
X104555645Y-114852384D01*
X104606678Y-114922508D01*
X104687157Y-115037637D01*
X104783506Y-115135017D01*
X104886909Y-115206577D01*
X104945531Y-115232687D01*
X105030512Y-115252576D01*
X105143984Y-115265341D01*
X105276035Y-115271072D01*
X105416751Y-115269859D01*
X105556218Y-115261793D01*
X105684523Y-115246963D01*
X105791753Y-115225461D01*
X105793631Y-115224959D01*
X105987170Y-115164532D01*
X106160909Y-115093509D01*
X106310972Y-115014219D01*
X106433484Y-114928994D01*
X106524567Y-114840162D01*
X106579221Y-114752758D01*
X106597372Y-114668277D01*
X106592263Y-114568075D01*
X106565561Y-114466524D01*
X106539524Y-114410309D01*
X106497370Y-114347855D01*
X106444849Y-114296337D01*
X106377855Y-114254483D01*
X106292284Y-114221022D01*
X106184032Y-114194682D01*
X106048993Y-114174189D01*
X105883064Y-114158273D01*
X105686265Y-114145876D01*
X105489541Y-114133406D01*
X105324634Y-114117699D01*
X105184344Y-114097669D01*
X105061470Y-114072234D01*
X104948811Y-114040308D01*
X104918919Y-114030334D01*
X104725699Y-113950054D01*
X104568215Y-113854716D01*
X104446675Y-113744768D01*
X104361287Y-113620661D01*
X104312262Y-113482844D01*
X104299808Y-113331767D01*
X104324133Y-113167879D01*
X104385448Y-112991630D01*
X104410839Y-112936917D01*
X104480830Y-112820056D01*
X104577979Y-112694866D01*
X104694272Y-112570052D01*
X104821699Y-112454319D01*
X104933372Y-112369179D01*
X105167399Y-112227452D01*
X105405279Y-112123741D01*
X105648496Y-112057870D01*
X105898537Y-112029663D01*
X106156886Y-112038942D01*
G36*
X87528131Y-111890677D02*
X87627751Y-111949163D01*
X87706687Y-112036157D01*
X87731973Y-112080091D01*
X87746949Y-112126302D01*
X87750573Y-112179254D01*
X87741800Y-112243409D01*
X87719588Y-112323233D01*
X87682894Y-112423187D01*
X87630675Y-112547735D01*
X87561886Y-112701342D01*
X87540122Y-112748846D01*
X87475171Y-112890910D01*
X87399542Y-113057625D01*
X87318248Y-113237856D01*
X87236305Y-113420467D01*
X87158726Y-113594323D01*
X87114499Y-113694008D01*
X87046930Y-113845799D01*
X86976057Y-114003380D01*
X86905812Y-114158126D01*
X86840125Y-114301413D01*
X86782925Y-114424617D01*
X86744993Y-114504854D01*
X86696005Y-114604790D01*
X86636112Y-114723184D01*
X86568086Y-114854898D01*
X86494696Y-114994793D01*
X86418716Y-115137731D01*
X86342917Y-115278574D01*
X86270070Y-115412184D01*
X86202947Y-115533423D01*
X86144319Y-115637152D01*
X86096958Y-115718234D01*
X86063636Y-115771529D01*
X86055582Y-115782961D01*
X85969717Y-115869851D01*
X85868276Y-115927535D01*
X85758933Y-115953101D01*
X85649363Y-115943642D01*
X85639231Y-115940818D01*
X85538282Y-115893620D01*
X85458449Y-115821834D01*
X85405586Y-115732679D01*
X85385546Y-115633378D01*
X85385512Y-115627816D01*
X85396508Y-115571358D01*
X85428963Y-115483028D01*
X85482595Y-115363426D01*
X85557122Y-115213149D01*
X85652261Y-115032798D01*
X85746660Y-114860731D01*
X85816368Y-114732658D01*
X85865303Y-114636138D01*
X85894017Y-114569978D01*
X85903061Y-114532985D01*
X85901260Y-114526040D01*
X85867661Y-114477149D01*
X85816646Y-114400423D01*
X85750521Y-114299488D01*
X85671593Y-114177968D01*
X85582170Y-114039489D01*
X85484559Y-113887676D01*
X85381066Y-113726154D01*
X85273998Y-113558549D01*
X85165663Y-113388485D01*
X85058367Y-113219587D01*
X84954419Y-113055482D01*
X84856123Y-112899794D01*
X84765788Y-112756148D01*
X84685721Y-112628170D01*
X84618229Y-112519484D01*
X84565618Y-112433716D01*
X84530195Y-112374491D01*
X84516462Y-112349996D01*
X84490601Y-112261727D01*
X84491666Y-112162032D01*
X84518125Y-112066262D01*
X84550349Y-112010544D01*
X84630307Y-111935371D01*
X84728761Y-111888130D01*
X84836267Y-111870507D01*
X84943379Y-111884185D01*
X85031666Y-111924673D01*
X85056621Y-111942401D01*
X85081106Y-111963377D01*
X85107111Y-111990614D01*
X85136625Y-112027123D01*
X85171639Y-112075915D01*
X85214140Y-112140002D01*
X85266119Y-112222396D01*
X85329565Y-112326109D01*
X85406467Y-112454153D01*
X85498814Y-112609539D01*
X85608596Y-112795279D01*
X85624270Y-112821842D01*
X85744823Y-113024707D01*
X85856112Y-113209053D01*
X85956757Y-113372730D01*
X86045381Y-113513584D01*
X86120606Y-113629465D01*
X86181055Y-113718220D01*
X86225349Y-113777699D01*
X86252112Y-113805750D01*
X86255392Y-113807452D01*
X86273714Y-113794854D01*
X86301770Y-113755365D01*
X86331388Y-113701579D01*
X86377594Y-113606713D01*
X86435874Y-113484623D01*
X86503142Y-113341987D01*
X86576314Y-113185479D01*
X86652305Y-113021776D01*
X86728029Y-112857553D01*
X86800404Y-112699485D01*
X86866342Y-112554249D01*
X86922761Y-112428520D01*
X86966575Y-112328973D01*
X86978741Y-112300661D01*
X87038693Y-112165777D01*
X87091010Y-112063353D01*
X87139427Y-111988464D01*
X87187679Y-111936185D01*
X87239503Y-111901590D01*
X87297794Y-111879979D01*
X87416237Y-111866887D01*
X87528131Y-111890677D01*
X87528131Y-111890677D01*
G37*
X87528131Y-111890677D02*
X87627751Y-111949163D01*
X87706687Y-112036157D01*
X87731973Y-112080091D01*
X87746949Y-112126302D01*
X87750573Y-112179254D01*
X87741800Y-112243409D01*
X87719588Y-112323233D01*
X87682894Y-112423187D01*
X87630675Y-112547735D01*
X87561886Y-112701342D01*
X87540122Y-112748846D01*
X87475171Y-112890910D01*
X87399542Y-113057625D01*
X87318248Y-113237856D01*
X87236305Y-113420467D01*
X87158726Y-113594323D01*
X87114499Y-113694008D01*
X87046930Y-113845799D01*
X86976057Y-114003380D01*
X86905812Y-114158126D01*
X86840125Y-114301413D01*
X86782925Y-114424617D01*
X86744993Y-114504854D01*
X86696005Y-114604790D01*
X86636112Y-114723184D01*
X86568086Y-114854898D01*
X86494696Y-114994793D01*
X86418716Y-115137731D01*
X86342917Y-115278574D01*
X86270070Y-115412184D01*
X86202947Y-115533423D01*
X86144319Y-115637152D01*
X86096958Y-115718234D01*
X86063636Y-115771529D01*
X86055582Y-115782961D01*
X85969717Y-115869851D01*
X85868276Y-115927535D01*
X85758933Y-115953101D01*
X85649363Y-115943642D01*
X85639231Y-115940818D01*
X85538282Y-115893620D01*
X85458449Y-115821834D01*
X85405586Y-115732679D01*
X85385546Y-115633378D01*
X85385512Y-115627816D01*
X85396508Y-115571358D01*
X85428963Y-115483028D01*
X85482595Y-115363426D01*
X85557122Y-115213149D01*
X85652261Y-115032798D01*
X85746660Y-114860731D01*
X85816368Y-114732658D01*
X85865303Y-114636138D01*
X85894017Y-114569978D01*
X85903061Y-114532985D01*
X85901260Y-114526040D01*
X85867661Y-114477149D01*
X85816646Y-114400423D01*
X85750521Y-114299488D01*
X85671593Y-114177968D01*
X85582170Y-114039489D01*
X85484559Y-113887676D01*
X85381066Y-113726154D01*
X85273998Y-113558549D01*
X85165663Y-113388485D01*
X85058367Y-113219587D01*
X84954419Y-113055482D01*
X84856123Y-112899794D01*
X84765788Y-112756148D01*
X84685721Y-112628170D01*
X84618229Y-112519484D01*
X84565618Y-112433716D01*
X84530195Y-112374491D01*
X84516462Y-112349996D01*
X84490601Y-112261727D01*
X84491666Y-112162032D01*
X84518125Y-112066262D01*
X84550349Y-112010544D01*
X84630307Y-111935371D01*
X84728761Y-111888130D01*
X84836267Y-111870507D01*
X84943379Y-111884185D01*
X85031666Y-111924673D01*
X85056621Y-111942401D01*
X85081106Y-111963377D01*
X85107111Y-111990614D01*
X85136625Y-112027123D01*
X85171639Y-112075915D01*
X85214140Y-112140002D01*
X85266119Y-112222396D01*
X85329565Y-112326109D01*
X85406467Y-112454153D01*
X85498814Y-112609539D01*
X85608596Y-112795279D01*
X85624270Y-112821842D01*
X85744823Y-113024707D01*
X85856112Y-113209053D01*
X85956757Y-113372730D01*
X86045381Y-113513584D01*
X86120606Y-113629465D01*
X86181055Y-113718220D01*
X86225349Y-113777699D01*
X86252112Y-113805750D01*
X86255392Y-113807452D01*
X86273714Y-113794854D01*
X86301770Y-113755365D01*
X86331388Y-113701579D01*
X86377594Y-113606713D01*
X86435874Y-113484623D01*
X86503142Y-113341987D01*
X86576314Y-113185479D01*
X86652305Y-113021776D01*
X86728029Y-112857553D01*
X86800404Y-112699485D01*
X86866342Y-112554249D01*
X86922761Y-112428520D01*
X86966575Y-112328973D01*
X86978741Y-112300661D01*
X87038693Y-112165777D01*
X87091010Y-112063353D01*
X87139427Y-111988464D01*
X87187679Y-111936185D01*
X87239503Y-111901590D01*
X87297794Y-111879979D01*
X87416237Y-111866887D01*
X87528131Y-111890677D01*
G36*
X102727113Y-111664315D02*
X102943818Y-111679426D01*
X103137829Y-111703363D01*
X103305705Y-111735514D01*
X103444007Y-111775272D01*
X103549293Y-111822025D01*
X103596935Y-111854639D01*
X103665174Y-111934716D01*
X103701800Y-112027696D01*
X103708801Y-112126533D01*
X103688166Y-112224183D01*
X103641884Y-112313599D01*
X103571943Y-112387738D01*
X103480332Y-112439554D01*
X103427525Y-112454786D01*
X103380277Y-112455820D01*
X103301931Y-112447365D01*
X103199065Y-112430291D01*
X103114910Y-112413447D01*
X103023132Y-112394663D01*
X102943963Y-112380800D01*
X102868443Y-112371116D01*
X102787613Y-112364868D01*
X102692515Y-112361313D01*
X102574190Y-112359711D01*
X102461846Y-112359340D01*
X102265182Y-112361421D01*
X102097943Y-112368757D01*
X101950711Y-112382329D01*
X101814069Y-112403121D01*
X101678598Y-112432115D01*
X101618505Y-112447310D01*
X101546933Y-112466130D01*
X101539961Y-112978719D01*
X101538295Y-113116177D01*
X101537181Y-113240340D01*
X101536634Y-113345993D01*
X101536670Y-113427917D01*
X101537302Y-113480895D01*
X101538456Y-113499641D01*
X101558470Y-113499833D01*
X101613026Y-113496710D01*
X101697761Y-113490616D01*
X101808312Y-113481896D01*
X101940316Y-113470893D01*
X102089409Y-113457953D01*
X102251229Y-113443418D01*
X102251385Y-113443404D01*
X102474673Y-113423221D01*
X102662626Y-113406829D01*
X102818793Y-113394156D01*
X102946725Y-113385134D01*
X103049972Y-113379692D01*
X103132084Y-113377762D01*
X103196611Y-113379273D01*
X103247103Y-113384155D01*
X103287111Y-113392340D01*
X103320184Y-113403757D01*
X103349873Y-113418337D01*
X103355905Y-113421734D01*
X103429154Y-113472415D01*
X103476909Y-113531237D01*
X103509716Y-113612167D01*
X103515718Y-113633369D01*
X103525746Y-113723223D01*
X103513752Y-113818332D01*
X103482884Y-113903114D01*
X103452247Y-113947425D01*
X103429499Y-113970592D01*
X103405766Y-113990228D01*
X103377401Y-114006961D01*
X103340753Y-114021420D01*
X103292175Y-114034231D01*
X103228016Y-114046023D01*
X103144629Y-114057424D01*
X103038363Y-114069061D01*
X102905571Y-114081563D01*
X102742602Y-114095556D01*
X102545808Y-114111669D01*
X102455065Y-114118989D01*
X102275261Y-114133562D01*
X102105716Y-114147494D01*
X101950792Y-114160412D01*
X101814847Y-114171946D01*
X101702241Y-114181722D01*
X101617332Y-114189369D01*
X101564481Y-114194515D01*
X101550205Y-114196211D01*
X101488487Y-114205563D01*
X101474298Y-114394818D01*
X101469315Y-114492915D01*
X101467205Y-114608499D01*
X101467702Y-114733893D01*
X101470543Y-114861422D01*
X101475463Y-114983408D01*
X101482198Y-115092177D01*
X101490483Y-115180051D01*
X101500054Y-115239355D01*
X101503839Y-115252439D01*
X101534338Y-115302433D01*
X101585135Y-115325493D01*
X101586197Y-115325709D01*
X101636138Y-115331111D01*
X101719623Y-115334811D01*
X101831156Y-115336850D01*
X101965243Y-115337271D01*
X102116390Y-115336116D01*
X102279102Y-115333426D01*
X102447884Y-115329244D01*
X102617242Y-115323611D01*
X102781672Y-115316570D01*
X102923665Y-115309858D01*
X103032286Y-115305360D01*
X103113187Y-115303286D01*
X103172022Y-115303843D01*
X103214443Y-115307240D01*
X103246104Y-115313685D01*
X103272656Y-115323385D01*
X103297828Y-115335564D01*
X103391158Y-115403009D01*
X103454776Y-115491144D01*
X103486915Y-115593346D01*
X103485809Y-115702990D01*
X103449690Y-115813451D01*
X103433264Y-115843290D01*
X103374709Y-115906849D01*
X103284025Y-115955232D01*
X103159339Y-115989281D01*
X103082063Y-116001397D01*
X103003949Y-116008615D01*
X102894193Y-116015027D01*
X102760226Y-116020521D01*
X102609477Y-116024986D01*
X102449375Y-116028309D01*
X102287350Y-116030380D01*
X102130831Y-116031085D01*
X101987249Y-116030315D01*
X101864032Y-116027956D01*
X101768609Y-116023898D01*
X101737970Y-116021602D01*
X101510669Y-115991812D01*
X101319319Y-115946924D01*
X101163814Y-115886898D01*
X101044045Y-115811693D01*
X100967146Y-115731587D01*
X100904623Y-115622721D01*
X100850767Y-115482741D01*
X100807988Y-115319104D01*
X100780415Y-115153518D01*
X100772173Y-115055458D01*
X100767151Y-114924109D01*
X100765244Y-114765116D01*
X100766350Y-114584126D01*
X100770364Y-114386783D01*
X100777183Y-114178735D01*
X100786704Y-113965627D01*
X100798824Y-113753105D01*
X100808737Y-113608538D01*
X100824786Y-113385105D01*
X100837281Y-113195636D01*
X100846310Y-113035187D01*
X100851960Y-112898817D01*
X100854320Y-112781581D01*
X100853478Y-112678538D01*
X100849521Y-112584744D01*
X100842536Y-112495256D01*
X100832613Y-112405132D01*
X100830434Y-112387775D01*
X100814292Y-112241928D01*
X100807825Y-112126757D01*
X100811347Y-112034998D01*
X100825166Y-111959390D01*
X100849596Y-111892670D01*
X100851850Y-111887853D01*
X100908122Y-111812327D01*
X100990082Y-111760269D01*
X101090603Y-111733934D01*
X101202556Y-111735574D01*
X101278689Y-111752901D01*
X101328262Y-111767458D01*
X101369667Y-111774970D01*
X101413612Y-111775201D01*
X101470804Y-111767912D01*
X101551949Y-111752866D01*
X101586210Y-111746078D01*
X101761888Y-111712863D01*
X101913866Y-111688840D01*
X102055458Y-111672724D01*
X102199979Y-111663228D01*
X102360742Y-111659065D01*
X102491154Y-111658639D01*
X102727113Y-111664315D01*
X102727113Y-111664315D01*
G37*
X102727113Y-111664315D02*
X102943818Y-111679426D01*
X103137829Y-111703363D01*
X103305705Y-111735514D01*
X103444007Y-111775272D01*
X103549293Y-111822025D01*
X103596935Y-111854639D01*
X103665174Y-111934716D01*
X103701800Y-112027696D01*
X103708801Y-112126533D01*
X103688166Y-112224183D01*
X103641884Y-112313599D01*
X103571943Y-112387738D01*
X103480332Y-112439554D01*
X103427525Y-112454786D01*
X103380277Y-112455820D01*
X103301931Y-112447365D01*
X103199065Y-112430291D01*
X103114910Y-112413447D01*
X103023132Y-112394663D01*
X102943963Y-112380800D01*
X102868443Y-112371116D01*
X102787613Y-112364868D01*
X102692515Y-112361313D01*
X102574190Y-112359711D01*
X102461846Y-112359340D01*
X102265182Y-112361421D01*
X102097943Y-112368757D01*
X101950711Y-112382329D01*
X101814069Y-112403121D01*
X101678598Y-112432115D01*
X101618505Y-112447310D01*
X101546933Y-112466130D01*
X101539961Y-112978719D01*
X101538295Y-113116177D01*
X101537181Y-113240340D01*
X101536634Y-113345993D01*
X101536670Y-113427917D01*
X101537302Y-113480895D01*
X101538456Y-113499641D01*
X101558470Y-113499833D01*
X101613026Y-113496710D01*
X101697761Y-113490616D01*
X101808312Y-113481896D01*
X101940316Y-113470893D01*
X102089409Y-113457953D01*
X102251229Y-113443418D01*
X102251385Y-113443404D01*
X102474673Y-113423221D01*
X102662626Y-113406829D01*
X102818793Y-113394156D01*
X102946725Y-113385134D01*
X103049972Y-113379692D01*
X103132084Y-113377762D01*
X103196611Y-113379273D01*
X103247103Y-113384155D01*
X103287111Y-113392340D01*
X103320184Y-113403757D01*
X103349873Y-113418337D01*
X103355905Y-113421734D01*
X103429154Y-113472415D01*
X103476909Y-113531237D01*
X103509716Y-113612167D01*
X103515718Y-113633369D01*
X103525746Y-113723223D01*
X103513752Y-113818332D01*
X103482884Y-113903114D01*
X103452247Y-113947425D01*
X103429499Y-113970592D01*
X103405766Y-113990228D01*
X103377401Y-114006961D01*
X103340753Y-114021420D01*
X103292175Y-114034231D01*
X103228016Y-114046023D01*
X103144629Y-114057424D01*
X103038363Y-114069061D01*
X102905571Y-114081563D01*
X102742602Y-114095556D01*
X102545808Y-114111669D01*
X102455065Y-114118989D01*
X102275261Y-114133562D01*
X102105716Y-114147494D01*
X101950792Y-114160412D01*
X101814847Y-114171946D01*
X101702241Y-114181722D01*
X101617332Y-114189369D01*
X101564481Y-114194515D01*
X101550205Y-114196211D01*
X101488487Y-114205563D01*
X101474298Y-114394818D01*
X101469315Y-114492915D01*
X101467205Y-114608499D01*
X101467702Y-114733893D01*
X101470543Y-114861422D01*
X101475463Y-114983408D01*
X101482198Y-115092177D01*
X101490483Y-115180051D01*
X101500054Y-115239355D01*
X101503839Y-115252439D01*
X101534338Y-115302433D01*
X101585135Y-115325493D01*
X101586197Y-115325709D01*
X101636138Y-115331111D01*
X101719623Y-115334811D01*
X101831156Y-115336850D01*
X101965243Y-115337271D01*
X102116390Y-115336116D01*
X102279102Y-115333426D01*
X102447884Y-115329244D01*
X102617242Y-115323611D01*
X102781672Y-115316570D01*
X102923665Y-115309858D01*
X103032286Y-115305360D01*
X103113187Y-115303286D01*
X103172022Y-115303843D01*
X103214443Y-115307240D01*
X103246104Y-115313685D01*
X103272656Y-115323385D01*
X103297828Y-115335564D01*
X103391158Y-115403009D01*
X103454776Y-115491144D01*
X103486915Y-115593346D01*
X103485809Y-115702990D01*
X103449690Y-115813451D01*
X103433264Y-115843290D01*
X103374709Y-115906849D01*
X103284025Y-115955232D01*
X103159339Y-115989281D01*
X103082063Y-116001397D01*
X103003949Y-116008615D01*
X102894193Y-116015027D01*
X102760226Y-116020521D01*
X102609477Y-116024986D01*
X102449375Y-116028309D01*
X102287350Y-116030380D01*
X102130831Y-116031085D01*
X101987249Y-116030315D01*
X101864032Y-116027956D01*
X101768609Y-116023898D01*
X101737970Y-116021602D01*
X101510669Y-115991812D01*
X101319319Y-115946924D01*
X101163814Y-115886898D01*
X101044045Y-115811693D01*
X100967146Y-115731587D01*
X100904623Y-115622721D01*
X100850767Y-115482741D01*
X100807988Y-115319104D01*
X100780415Y-115153518D01*
X100772173Y-115055458D01*
X100767151Y-114924109D01*
X100765244Y-114765116D01*
X100766350Y-114584126D01*
X100770364Y-114386783D01*
X100777183Y-114178735D01*
X100786704Y-113965627D01*
X100798824Y-113753105D01*
X100808737Y-113608538D01*
X100824786Y-113385105D01*
X100837281Y-113195636D01*
X100846310Y-113035187D01*
X100851960Y-112898817D01*
X100854320Y-112781581D01*
X100853478Y-112678538D01*
X100849521Y-112584744D01*
X100842536Y-112495256D01*
X100832613Y-112405132D01*
X100830434Y-112387775D01*
X100814292Y-112241928D01*
X100807825Y-112126757D01*
X100811347Y-112034998D01*
X100825166Y-111959390D01*
X100849596Y-111892670D01*
X100851850Y-111887853D01*
X100908122Y-111812327D01*
X100990082Y-111760269D01*
X101090603Y-111733934D01*
X101202556Y-111735574D01*
X101278689Y-111752901D01*
X101328262Y-111767458D01*
X101369667Y-111774970D01*
X101413612Y-111775201D01*
X101470804Y-111767912D01*
X101551949Y-111752866D01*
X101586210Y-111746078D01*
X101761888Y-111712863D01*
X101913866Y-111688840D01*
X102055458Y-111672724D01*
X102199979Y-111663228D01*
X102360742Y-111659065D01*
X102491154Y-111658639D01*
X102727113Y-111664315D01*
G36*
X99425113Y-111664315D02*
X99641818Y-111679426D01*
X99835829Y-111703363D01*
X100003705Y-111735514D01*
X100142007Y-111775272D01*
X100247293Y-111822025D01*
X100294935Y-111854639D01*
X100363174Y-111934716D01*
X100399800Y-112027696D01*
X100406801Y-112126533D01*
X100386166Y-112224183D01*
X100339884Y-112313599D01*
X100269943Y-112387738D01*
X100178332Y-112439554D01*
X100125525Y-112454786D01*
X100078277Y-112455820D01*
X99999931Y-112447365D01*
X99897065Y-112430291D01*
X99812910Y-112413447D01*
X99721132Y-112394663D01*
X99641963Y-112380800D01*
X99566443Y-112371116D01*
X99485613Y-112364868D01*
X99390515Y-112361313D01*
X99272190Y-112359711D01*
X99159846Y-112359340D01*
X98963182Y-112361421D01*
X98795943Y-112368757D01*
X98648711Y-112382329D01*
X98512069Y-112403121D01*
X98376598Y-112432115D01*
X98316505Y-112447310D01*
X98244933Y-112466130D01*
X98237961Y-112978719D01*
X98236295Y-113116177D01*
X98235181Y-113240340D01*
X98234634Y-113345993D01*
X98234670Y-113427917D01*
X98235302Y-113480895D01*
X98236456Y-113499641D01*
X98256470Y-113499833D01*
X98311026Y-113496710D01*
X98395761Y-113490616D01*
X98506312Y-113481896D01*
X98638316Y-113470893D01*
X98787409Y-113457953D01*
X98949229Y-113443418D01*
X98949385Y-113443404D01*
X99172673Y-113423221D01*
X99360626Y-113406829D01*
X99516793Y-113394156D01*
X99644725Y-113385134D01*
X99747972Y-113379692D01*
X99830084Y-113377762D01*
X99894611Y-113379273D01*
X99945103Y-113384155D01*
X99985111Y-113392340D01*
X100018184Y-113403757D01*
X100047873Y-113418337D01*
X100053905Y-113421734D01*
X100127154Y-113472415D01*
X100174909Y-113531237D01*
X100207716Y-113612167D01*
X100213718Y-113633369D01*
X100223746Y-113723223D01*
X100211752Y-113818332D01*
X100180884Y-113903114D01*
X100150247Y-113947425D01*
X100127499Y-113970592D01*
X100103766Y-113990228D01*
X100075401Y-114006961D01*
X100038753Y-114021420D01*
X99990175Y-114034231D01*
X99926016Y-114046023D01*
X99842629Y-114057424D01*
X99736363Y-114069061D01*
X99603571Y-114081563D01*
X99440602Y-114095556D01*
X99243808Y-114111669D01*
X99153065Y-114118989D01*
X98973261Y-114133562D01*
X98803716Y-114147494D01*
X98648792Y-114160412D01*
X98512847Y-114171946D01*
X98400241Y-114181722D01*
X98315332Y-114189369D01*
X98262481Y-114194515D01*
X98248205Y-114196211D01*
X98186487Y-114205563D01*
X98172298Y-114394818D01*
X98167315Y-114492915D01*
X98165205Y-114608499D01*
X98165702Y-114733893D01*
X98168543Y-114861422D01*
X98173463Y-114983408D01*
X98180198Y-115092177D01*
X98188483Y-115180051D01*
X98198054Y-115239355D01*
X98201839Y-115252439D01*
X98232338Y-115302433D01*
X98283135Y-115325493D01*
X98284197Y-115325709D01*
X98334138Y-115331111D01*
X98417623Y-115334811D01*
X98529156Y-115336850D01*
X98663243Y-115337271D01*
X98814390Y-115336116D01*
X98977102Y-115333426D01*
X99145884Y-115329244D01*
X99315242Y-115323611D01*
X99479672Y-115316570D01*
X99621665Y-115309858D01*
X99730286Y-115305360D01*
X99811187Y-115303286D01*
X99870022Y-115303843D01*
X99912443Y-115307240D01*
X99944104Y-115313685D01*
X99970656Y-115323385D01*
X99995828Y-115335564D01*
X100089158Y-115403009D01*
X100152776Y-115491144D01*
X100184915Y-115593346D01*
X100183809Y-115702990D01*
X100147690Y-115813451D01*
X100131264Y-115843290D01*
X100072709Y-115906849D01*
X99982025Y-115955232D01*
X99857339Y-115989281D01*
X99780063Y-116001397D01*
X99701949Y-116008615D01*
X99592193Y-116015027D01*
X99458226Y-116020521D01*
X99307477Y-116024986D01*
X99147375Y-116028309D01*
X98985350Y-116030380D01*
X98828831Y-116031085D01*
X98685249Y-116030315D01*
X98562032Y-116027956D01*
X98466609Y-116023898D01*
X98435970Y-116021602D01*
X98208669Y-115991812D01*
X98017319Y-115946924D01*
X97861814Y-115886898D01*
X97742045Y-115811693D01*
X97665146Y-115731587D01*
X97602623Y-115622721D01*
X97548767Y-115482741D01*
X97505988Y-115319104D01*
X97478415Y-115153518D01*
X97470173Y-115055458D01*
X97465151Y-114924109D01*
X97463244Y-114765116D01*
X97464350Y-114584126D01*
X97468364Y-114386783D01*
X97475183Y-114178735D01*
X97484704Y-113965627D01*
X97496824Y-113753105D01*
X97506737Y-113608538D01*
X97522786Y-113385105D01*
X97535281Y-113195636D01*
X97544310Y-113035187D01*
X97549960Y-112898817D01*
X97552320Y-112781581D01*
X97551478Y-112678538D01*
X97547521Y-112584744D01*
X97540536Y-112495256D01*
X97530613Y-112405132D01*
X97528434Y-112387775D01*
X97512292Y-112241928D01*
X97505825Y-112126757D01*
X97509347Y-112034998D01*
X97523166Y-111959390D01*
X97547596Y-111892670D01*
X97549850Y-111887853D01*
X97606122Y-111812327D01*
X97688082Y-111760269D01*
X97788603Y-111733934D01*
X97900556Y-111735574D01*
X97976689Y-111752901D01*
X98026262Y-111767458D01*
X98067667Y-111774970D01*
X98111612Y-111775201D01*
X98168804Y-111767912D01*
X98249949Y-111752866D01*
X98284210Y-111746078D01*
X98459888Y-111712863D01*
X98611866Y-111688840D01*
X98753458Y-111672724D01*
X98897979Y-111663228D01*
X99058742Y-111659065D01*
X99189154Y-111658639D01*
X99425113Y-111664315D01*
X99425113Y-111664315D01*
G37*
X99425113Y-111664315D02*
X99641818Y-111679426D01*
X99835829Y-111703363D01*
X100003705Y-111735514D01*
X100142007Y-111775272D01*
X100247293Y-111822025D01*
X100294935Y-111854639D01*
X100363174Y-111934716D01*
X100399800Y-112027696D01*
X100406801Y-112126533D01*
X100386166Y-112224183D01*
X100339884Y-112313599D01*
X100269943Y-112387738D01*
X100178332Y-112439554D01*
X100125525Y-112454786D01*
X100078277Y-112455820D01*
X99999931Y-112447365D01*
X99897065Y-112430291D01*
X99812910Y-112413447D01*
X99721132Y-112394663D01*
X99641963Y-112380800D01*
X99566443Y-112371116D01*
X99485613Y-112364868D01*
X99390515Y-112361313D01*
X99272190Y-112359711D01*
X99159846Y-112359340D01*
X98963182Y-112361421D01*
X98795943Y-112368757D01*
X98648711Y-112382329D01*
X98512069Y-112403121D01*
X98376598Y-112432115D01*
X98316505Y-112447310D01*
X98244933Y-112466130D01*
X98237961Y-112978719D01*
X98236295Y-113116177D01*
X98235181Y-113240340D01*
X98234634Y-113345993D01*
X98234670Y-113427917D01*
X98235302Y-113480895D01*
X98236456Y-113499641D01*
X98256470Y-113499833D01*
X98311026Y-113496710D01*
X98395761Y-113490616D01*
X98506312Y-113481896D01*
X98638316Y-113470893D01*
X98787409Y-113457953D01*
X98949229Y-113443418D01*
X98949385Y-113443404D01*
X99172673Y-113423221D01*
X99360626Y-113406829D01*
X99516793Y-113394156D01*
X99644725Y-113385134D01*
X99747972Y-113379692D01*
X99830084Y-113377762D01*
X99894611Y-113379273D01*
X99945103Y-113384155D01*
X99985111Y-113392340D01*
X100018184Y-113403757D01*
X100047873Y-113418337D01*
X100053905Y-113421734D01*
X100127154Y-113472415D01*
X100174909Y-113531237D01*
X100207716Y-113612167D01*
X100213718Y-113633369D01*
X100223746Y-113723223D01*
X100211752Y-113818332D01*
X100180884Y-113903114D01*
X100150247Y-113947425D01*
X100127499Y-113970592D01*
X100103766Y-113990228D01*
X100075401Y-114006961D01*
X100038753Y-114021420D01*
X99990175Y-114034231D01*
X99926016Y-114046023D01*
X99842629Y-114057424D01*
X99736363Y-114069061D01*
X99603571Y-114081563D01*
X99440602Y-114095556D01*
X99243808Y-114111669D01*
X99153065Y-114118989D01*
X98973261Y-114133562D01*
X98803716Y-114147494D01*
X98648792Y-114160412D01*
X98512847Y-114171946D01*
X98400241Y-114181722D01*
X98315332Y-114189369D01*
X98262481Y-114194515D01*
X98248205Y-114196211D01*
X98186487Y-114205563D01*
X98172298Y-114394818D01*
X98167315Y-114492915D01*
X98165205Y-114608499D01*
X98165702Y-114733893D01*
X98168543Y-114861422D01*
X98173463Y-114983408D01*
X98180198Y-115092177D01*
X98188483Y-115180051D01*
X98198054Y-115239355D01*
X98201839Y-115252439D01*
X98232338Y-115302433D01*
X98283135Y-115325493D01*
X98284197Y-115325709D01*
X98334138Y-115331111D01*
X98417623Y-115334811D01*
X98529156Y-115336850D01*
X98663243Y-115337271D01*
X98814390Y-115336116D01*
X98977102Y-115333426D01*
X99145884Y-115329244D01*
X99315242Y-115323611D01*
X99479672Y-115316570D01*
X99621665Y-115309858D01*
X99730286Y-115305360D01*
X99811187Y-115303286D01*
X99870022Y-115303843D01*
X99912443Y-115307240D01*
X99944104Y-115313685D01*
X99970656Y-115323385D01*
X99995828Y-115335564D01*
X100089158Y-115403009D01*
X100152776Y-115491144D01*
X100184915Y-115593346D01*
X100183809Y-115702990D01*
X100147690Y-115813451D01*
X100131264Y-115843290D01*
X100072709Y-115906849D01*
X99982025Y-115955232D01*
X99857339Y-115989281D01*
X99780063Y-116001397D01*
X99701949Y-116008615D01*
X99592193Y-116015027D01*
X99458226Y-116020521D01*
X99307477Y-116024986D01*
X99147375Y-116028309D01*
X98985350Y-116030380D01*
X98828831Y-116031085D01*
X98685249Y-116030315D01*
X98562032Y-116027956D01*
X98466609Y-116023898D01*
X98435970Y-116021602D01*
X98208669Y-115991812D01*
X98017319Y-115946924D01*
X97861814Y-115886898D01*
X97742045Y-115811693D01*
X97665146Y-115731587D01*
X97602623Y-115622721D01*
X97548767Y-115482741D01*
X97505988Y-115319104D01*
X97478415Y-115153518D01*
X97470173Y-115055458D01*
X97465151Y-114924109D01*
X97463244Y-114765116D01*
X97464350Y-114584126D01*
X97468364Y-114386783D01*
X97475183Y-114178735D01*
X97484704Y-113965627D01*
X97496824Y-113753105D01*
X97506737Y-113608538D01*
X97522786Y-113385105D01*
X97535281Y-113195636D01*
X97544310Y-113035187D01*
X97549960Y-112898817D01*
X97552320Y-112781581D01*
X97551478Y-112678538D01*
X97547521Y-112584744D01*
X97540536Y-112495256D01*
X97530613Y-112405132D01*
X97528434Y-112387775D01*
X97512292Y-112241928D01*
X97505825Y-112126757D01*
X97509347Y-112034998D01*
X97523166Y-111959390D01*
X97547596Y-111892670D01*
X97549850Y-111887853D01*
X97606122Y-111812327D01*
X97688082Y-111760269D01*
X97788603Y-111733934D01*
X97900556Y-111735574D01*
X97976689Y-111752901D01*
X98026262Y-111767458D01*
X98067667Y-111774970D01*
X98111612Y-111775201D01*
X98168804Y-111767912D01*
X98249949Y-111752866D01*
X98284210Y-111746078D01*
X98459888Y-111712863D01*
X98611866Y-111688840D01*
X98753458Y-111672724D01*
X98897979Y-111663228D01*
X99058742Y-111659065D01*
X99189154Y-111658639D01*
X99425113Y-111664315D01*
D11*
G36*
X97650443Y-107645519D02*
X97716627Y-107652037D01*
X97829853Y-107686384D01*
X97886467Y-107703557D01*
X98025087Y-107777652D01*
X98042991Y-107787222D01*
X98078729Y-107816552D01*
X98180186Y-107899814D01*
X98263448Y-108001271D01*
X98292778Y-108037009D01*
X98292779Y-108037011D01*
X98376443Y-108193533D01*
X98376443Y-108193534D01*
X98427963Y-108363373D01*
X98445359Y-108540000D01*
X98427963Y-108716627D01*
X98393616Y-108829853D01*
X98376443Y-108886467D01*
X98302348Y-109025087D01*
X98292778Y-109042991D01*
X98263448Y-109078729D01*
X98180186Y-109180186D01*
X98078729Y-109263448D01*
X98042991Y-109292778D01*
X98042989Y-109292779D01*
X97886467Y-109376443D01*
X97829853Y-109393616D01*
X97716627Y-109427963D01*
X97650443Y-109434481D01*
X97584260Y-109441000D01*
X97495740Y-109441000D01*
X97429557Y-109434481D01*
X97363373Y-109427963D01*
X97250147Y-109393616D01*
X97193533Y-109376443D01*
X97037011Y-109292779D01*
X97037009Y-109292778D01*
X97001271Y-109263448D01*
X96899814Y-109180186D01*
X96816552Y-109078729D01*
X96787222Y-109042991D01*
X96777652Y-109025087D01*
X96703557Y-108886467D01*
X96686384Y-108829853D01*
X96652037Y-108716627D01*
X96634641Y-108540000D01*
X96652037Y-108363373D01*
X96703557Y-108193534D01*
X96703557Y-108193533D01*
X96787221Y-108037011D01*
X96787222Y-108037009D01*
X96816552Y-108001271D01*
X96899814Y-107899814D01*
X97001271Y-107816552D01*
X97037009Y-107787222D01*
X97054913Y-107777652D01*
X97193533Y-107703557D01*
X97250147Y-107686384D01*
X97363373Y-107652037D01*
X97429557Y-107645519D01*
X97495740Y-107639000D01*
X97584260Y-107639000D01*
X97650443Y-107645519D01*
X97650443Y-107645519D01*
G37*
G36*
X95110443Y-107645519D02*
X95176627Y-107652037D01*
X95289853Y-107686384D01*
X95346467Y-107703557D01*
X95485087Y-107777652D01*
X95502991Y-107787222D01*
X95538729Y-107816552D01*
X95640186Y-107899814D01*
X95723448Y-108001271D01*
X95752778Y-108037009D01*
X95752779Y-108037011D01*
X95836443Y-108193533D01*
X95836443Y-108193534D01*
X95887963Y-108363373D01*
X95905359Y-108540000D01*
X95887963Y-108716627D01*
X95853616Y-108829853D01*
X95836443Y-108886467D01*
X95762348Y-109025087D01*
X95752778Y-109042991D01*
X95723448Y-109078729D01*
X95640186Y-109180186D01*
X95538729Y-109263448D01*
X95502991Y-109292778D01*
X95502989Y-109292779D01*
X95346467Y-109376443D01*
X95289853Y-109393616D01*
X95176627Y-109427963D01*
X95110443Y-109434481D01*
X95044260Y-109441000D01*
X94955740Y-109441000D01*
X94889557Y-109434481D01*
X94823373Y-109427963D01*
X94710147Y-109393616D01*
X94653533Y-109376443D01*
X94497011Y-109292779D01*
X94497009Y-109292778D01*
X94461271Y-109263448D01*
X94359814Y-109180186D01*
X94276552Y-109078729D01*
X94247222Y-109042991D01*
X94237652Y-109025087D01*
X94163557Y-108886467D01*
X94146384Y-108829853D01*
X94112037Y-108716627D01*
X94094641Y-108540000D01*
X94112037Y-108363373D01*
X94163557Y-108193534D01*
X94163557Y-108193533D01*
X94247221Y-108037011D01*
X94247222Y-108037009D01*
X94276552Y-108001271D01*
X94359814Y-107899814D01*
X94461271Y-107816552D01*
X94497009Y-107787222D01*
X94514913Y-107777652D01*
X94653533Y-107703557D01*
X94710147Y-107686384D01*
X94823373Y-107652037D01*
X94889557Y-107645519D01*
X94955740Y-107639000D01*
X95044260Y-107639000D01*
X95110443Y-107645519D01*
X95110443Y-107645519D01*
G37*
G36*
X100190443Y-107645519D02*
X100256627Y-107652037D01*
X100369853Y-107686384D01*
X100426467Y-107703557D01*
X100565087Y-107777652D01*
X100582991Y-107787222D01*
X100618729Y-107816552D01*
X100720186Y-107899814D01*
X100803448Y-108001271D01*
X100832778Y-108037009D01*
X100832779Y-108037011D01*
X100916443Y-108193533D01*
X100916443Y-108193534D01*
X100967963Y-108363373D01*
X100985359Y-108540000D01*
X100967963Y-108716627D01*
X100933616Y-108829853D01*
X100916443Y-108886467D01*
X100842348Y-109025087D01*
X100832778Y-109042991D01*
X100803448Y-109078729D01*
X100720186Y-109180186D01*
X100618729Y-109263448D01*
X100582991Y-109292778D01*
X100582989Y-109292779D01*
X100426467Y-109376443D01*
X100369853Y-109393616D01*
X100256627Y-109427963D01*
X100190443Y-109434481D01*
X100124260Y-109441000D01*
X100035740Y-109441000D01*
X99969557Y-109434481D01*
X99903373Y-109427963D01*
X99790147Y-109393616D01*
X99733533Y-109376443D01*
X99577011Y-109292779D01*
X99577009Y-109292778D01*
X99541271Y-109263448D01*
X99439814Y-109180186D01*
X99356552Y-109078729D01*
X99327222Y-109042991D01*
X99317652Y-109025087D01*
X99243557Y-108886467D01*
X99226384Y-108829853D01*
X99192037Y-108716627D01*
X99174641Y-108540000D01*
X99192037Y-108363373D01*
X99243557Y-108193534D01*
X99243557Y-108193533D01*
X99327221Y-108037011D01*
X99327222Y-108037009D01*
X99356552Y-108001271D01*
X99439814Y-107899814D01*
X99541271Y-107816552D01*
X99577009Y-107787222D01*
X99594913Y-107777652D01*
X99733533Y-107703557D01*
X99790147Y-107686384D01*
X99903373Y-107652037D01*
X99969557Y-107645519D01*
X100035740Y-107639000D01*
X100124260Y-107639000D01*
X100190443Y-107645519D01*
X100190443Y-107645519D01*
G37*
G36*
X95901000Y-106901000D02*
X94099000Y-106901000D01*
X94099000Y-105099000D01*
X95901000Y-105099000D01*
X95901000Y-106901000D01*
X95901000Y-106901000D01*
G37*
G36*
X100190442Y-105105518D02*
X100256627Y-105112037D01*
X100369853Y-105146384D01*
X100426467Y-105163557D01*
X100565087Y-105237652D01*
X100582991Y-105247222D01*
X100618729Y-105276552D01*
X100720186Y-105359814D01*
X100803448Y-105461271D01*
X100832778Y-105497009D01*
X100832779Y-105497011D01*
X100916443Y-105653533D01*
X100916443Y-105653534D01*
X100967963Y-105823373D01*
X100985359Y-106000000D01*
X100967963Y-106176627D01*
X100933616Y-106289853D01*
X100916443Y-106346467D01*
X100842348Y-106485087D01*
X100832778Y-106502991D01*
X100803448Y-106538729D01*
X100720186Y-106640186D01*
X100618729Y-106723448D01*
X100582991Y-106752778D01*
X100582989Y-106752779D01*
X100426467Y-106836443D01*
X100369853Y-106853616D01*
X100256627Y-106887963D01*
X100190443Y-106894481D01*
X100124260Y-106901000D01*
X100035740Y-106901000D01*
X99969557Y-106894481D01*
X99903373Y-106887963D01*
X99790147Y-106853616D01*
X99733533Y-106836443D01*
X99577011Y-106752779D01*
X99577009Y-106752778D01*
X99541271Y-106723448D01*
X99439814Y-106640186D01*
X99356552Y-106538729D01*
X99327222Y-106502991D01*
X99317652Y-106485087D01*
X99243557Y-106346467D01*
X99226384Y-106289853D01*
X99192037Y-106176627D01*
X99174641Y-106000000D01*
X99192037Y-105823373D01*
X99243557Y-105653534D01*
X99243557Y-105653533D01*
X99327221Y-105497011D01*
X99327222Y-105497009D01*
X99356552Y-105461271D01*
X99439814Y-105359814D01*
X99541271Y-105276552D01*
X99577009Y-105247222D01*
X99594913Y-105237652D01*
X99733533Y-105163557D01*
X99790147Y-105146384D01*
X99903373Y-105112037D01*
X99969557Y-105105519D01*
X100035740Y-105099000D01*
X100124260Y-105099000D01*
X100190442Y-105105518D01*
X100190442Y-105105518D01*
G37*
G36*
X97650442Y-105105518D02*
X97716627Y-105112037D01*
X97829853Y-105146384D01*
X97886467Y-105163557D01*
X98025087Y-105237652D01*
X98042991Y-105247222D01*
X98078729Y-105276552D01*
X98180186Y-105359814D01*
X98263448Y-105461271D01*
X98292778Y-105497009D01*
X98292779Y-105497011D01*
X98376443Y-105653533D01*
X98376443Y-105653534D01*
X98427963Y-105823373D01*
X98445359Y-106000000D01*
X98427963Y-106176627D01*
X98393616Y-106289853D01*
X98376443Y-106346467D01*
X98302348Y-106485087D01*
X98292778Y-106502991D01*
X98263448Y-106538729D01*
X98180186Y-106640186D01*
X98078729Y-106723448D01*
X98042991Y-106752778D01*
X98042989Y-106752779D01*
X97886467Y-106836443D01*
X97829853Y-106853616D01*
X97716627Y-106887963D01*
X97650443Y-106894481D01*
X97584260Y-106901000D01*
X97495740Y-106901000D01*
X97429557Y-106894481D01*
X97363373Y-106887963D01*
X97250147Y-106853616D01*
X97193533Y-106836443D01*
X97037011Y-106752779D01*
X97037009Y-106752778D01*
X97001271Y-106723448D01*
X96899814Y-106640186D01*
X96816552Y-106538729D01*
X96787222Y-106502991D01*
X96777652Y-106485087D01*
X96703557Y-106346467D01*
X96686384Y-106289853D01*
X96652037Y-106176627D01*
X96634641Y-106000000D01*
X96652037Y-105823373D01*
X96703557Y-105653534D01*
X96703557Y-105653533D01*
X96787221Y-105497011D01*
X96787222Y-105497009D01*
X96816552Y-105461271D01*
X96899814Y-105359814D01*
X97001271Y-105276552D01*
X97037009Y-105247222D01*
X97054913Y-105237652D01*
X97193533Y-105163557D01*
X97250147Y-105146384D01*
X97363373Y-105112037D01*
X97429557Y-105105519D01*
X97495740Y-105099000D01*
X97584260Y-105099000D01*
X97650442Y-105105518D01*
X97650442Y-105105518D01*
G37*
G36*
X74734239Y-99311467D02*
X75048282Y-99373934D01*
X75639926Y-99619001D01*
X76168802Y-99972385D01*
X76172395Y-99974786D01*
X76625214Y-100427605D01*
X76625216Y-100427608D01*
X76980999Y-100960074D01*
X77223891Y-101546467D01*
X77226066Y-101551719D01*
X77351000Y-102179803D01*
X77351000Y-102820197D01*
X77295381Y-103099814D01*
X77226066Y-103448282D01*
X76980999Y-104039926D01*
X76949901Y-104086467D01*
X76625214Y-104572395D01*
X76172395Y-105025214D01*
X76172392Y-105025216D01*
X75639926Y-105380999D01*
X75048282Y-105626066D01*
X74734239Y-105688533D01*
X74420197Y-105751000D01*
X73779803Y-105751000D01*
X73465761Y-105688533D01*
X73151718Y-105626066D01*
X72560074Y-105380999D01*
X72027608Y-105025216D01*
X72027605Y-105025214D01*
X71574786Y-104572395D01*
X71250099Y-104086467D01*
X71219001Y-104039926D01*
X70973934Y-103448282D01*
X70904619Y-103099814D01*
X70849000Y-102820197D01*
X70849000Y-102179803D01*
X70973934Y-101551719D01*
X70976109Y-101546467D01*
X71219001Y-100960074D01*
X71574784Y-100427608D01*
X71574786Y-100427605D01*
X72027605Y-99974786D01*
X72031198Y-99972385D01*
X72560074Y-99619001D01*
X73151718Y-99373934D01*
X73465761Y-99311467D01*
X73779803Y-99249000D01*
X74420197Y-99249000D01*
X74734239Y-99311467D01*
X74734239Y-99311467D01*
G37*
G36*
X91290443Y-102845519D02*
X91356627Y-102852037D01*
X91469853Y-102886384D01*
X91526467Y-102903557D01*
X91665087Y-102977652D01*
X91682991Y-102987222D01*
X91718729Y-103016552D01*
X91820186Y-103099814D01*
X91903448Y-103201271D01*
X91932778Y-103237009D01*
X91932779Y-103237011D01*
X92016443Y-103393533D01*
X92016443Y-103393534D01*
X92067963Y-103563373D01*
X92085359Y-103740000D01*
X92067963Y-103916627D01*
X92033616Y-104029853D01*
X92016443Y-104086467D01*
X91942348Y-104225087D01*
X91932778Y-104242991D01*
X91903448Y-104278729D01*
X91820186Y-104380186D01*
X91718729Y-104463448D01*
X91682991Y-104492778D01*
X91682989Y-104492779D01*
X91526467Y-104576443D01*
X91469853Y-104593616D01*
X91356627Y-104627963D01*
X91290443Y-104634481D01*
X91224260Y-104641000D01*
X91135740Y-104641000D01*
X91069557Y-104634481D01*
X91003373Y-104627963D01*
X90890147Y-104593616D01*
X90833533Y-104576443D01*
X90677011Y-104492779D01*
X90677009Y-104492778D01*
X90641271Y-104463448D01*
X90539814Y-104380186D01*
X90456552Y-104278729D01*
X90427222Y-104242991D01*
X90417652Y-104225087D01*
X90343557Y-104086467D01*
X90326384Y-104029853D01*
X90292037Y-103916627D01*
X90274641Y-103740000D01*
X90292037Y-103563373D01*
X90343557Y-103393534D01*
X90343557Y-103393533D01*
X90427221Y-103237011D01*
X90427222Y-103237009D01*
X90456552Y-103201271D01*
X90539814Y-103099814D01*
X90641271Y-103016552D01*
X90677009Y-102987222D01*
X90694913Y-102977652D01*
X90833533Y-102903557D01*
X90890147Y-102886384D01*
X91003373Y-102852037D01*
X91069558Y-102845518D01*
X91135740Y-102839000D01*
X91224260Y-102839000D01*
X91290443Y-102845519D01*
X91290443Y-102845519D01*
G37*
G36*
X88750443Y-102845519D02*
X88816627Y-102852037D01*
X88929853Y-102886384D01*
X88986467Y-102903557D01*
X89125087Y-102977652D01*
X89142991Y-102987222D01*
X89178729Y-103016552D01*
X89280186Y-103099814D01*
X89363448Y-103201271D01*
X89392778Y-103237009D01*
X89392779Y-103237011D01*
X89476443Y-103393533D01*
X89476443Y-103393534D01*
X89527963Y-103563373D01*
X89545359Y-103740000D01*
X89527963Y-103916627D01*
X89493616Y-104029853D01*
X89476443Y-104086467D01*
X89402348Y-104225087D01*
X89392778Y-104242991D01*
X89363448Y-104278729D01*
X89280186Y-104380186D01*
X89178729Y-104463448D01*
X89142991Y-104492778D01*
X89142989Y-104492779D01*
X88986467Y-104576443D01*
X88929853Y-104593616D01*
X88816627Y-104627963D01*
X88750443Y-104634481D01*
X88684260Y-104641000D01*
X88595740Y-104641000D01*
X88529557Y-104634481D01*
X88463373Y-104627963D01*
X88350147Y-104593616D01*
X88293533Y-104576443D01*
X88137011Y-104492779D01*
X88137009Y-104492778D01*
X88101271Y-104463448D01*
X87999814Y-104380186D01*
X87916552Y-104278729D01*
X87887222Y-104242991D01*
X87877652Y-104225087D01*
X87803557Y-104086467D01*
X87786384Y-104029853D01*
X87752037Y-103916627D01*
X87734641Y-103740000D01*
X87752037Y-103563373D01*
X87803557Y-103393534D01*
X87803557Y-103393533D01*
X87887221Y-103237011D01*
X87887222Y-103237009D01*
X87916552Y-103201271D01*
X87999814Y-103099814D01*
X88101271Y-103016552D01*
X88137009Y-102987222D01*
X88154913Y-102977652D01*
X88293533Y-102903557D01*
X88350147Y-102886384D01*
X88463373Y-102852037D01*
X88529558Y-102845518D01*
X88595740Y-102839000D01*
X88684260Y-102839000D01*
X88750443Y-102845519D01*
X88750443Y-102845519D01*
G37*
G36*
X86210443Y-102845519D02*
X86276627Y-102852037D01*
X86389853Y-102886384D01*
X86446467Y-102903557D01*
X86585087Y-102977652D01*
X86602991Y-102987222D01*
X86638729Y-103016552D01*
X86740186Y-103099814D01*
X86823448Y-103201271D01*
X86852778Y-103237009D01*
X86852779Y-103237011D01*
X86936443Y-103393533D01*
X86936443Y-103393534D01*
X86987963Y-103563373D01*
X87005359Y-103740000D01*
X86987963Y-103916627D01*
X86953616Y-104029853D01*
X86936443Y-104086467D01*
X86862348Y-104225087D01*
X86852778Y-104242991D01*
X86823448Y-104278729D01*
X86740186Y-104380186D01*
X86638729Y-104463448D01*
X86602991Y-104492778D01*
X86602989Y-104492779D01*
X86446467Y-104576443D01*
X86389853Y-104593616D01*
X86276627Y-104627963D01*
X86210443Y-104634481D01*
X86144260Y-104641000D01*
X86055740Y-104641000D01*
X85989557Y-104634481D01*
X85923373Y-104627963D01*
X85810147Y-104593616D01*
X85753533Y-104576443D01*
X85597011Y-104492779D01*
X85597009Y-104492778D01*
X85561271Y-104463448D01*
X85459814Y-104380186D01*
X85376552Y-104278729D01*
X85347222Y-104242991D01*
X85337652Y-104225087D01*
X85263557Y-104086467D01*
X85246384Y-104029853D01*
X85212037Y-103916627D01*
X85194641Y-103740000D01*
X85212037Y-103563373D01*
X85263557Y-103393534D01*
X85263557Y-103393533D01*
X85347221Y-103237011D01*
X85347222Y-103237009D01*
X85376552Y-103201271D01*
X85459814Y-103099814D01*
X85561271Y-103016552D01*
X85597009Y-102987222D01*
X85614913Y-102977652D01*
X85753533Y-102903557D01*
X85810147Y-102886384D01*
X85923373Y-102852037D01*
X85989558Y-102845518D01*
X86055740Y-102839000D01*
X86144260Y-102839000D01*
X86210443Y-102845519D01*
X86210443Y-102845519D01*
G37*
G36*
X87001000Y-102101000D02*
X85199000Y-102101000D01*
X85199000Y-100299000D01*
X87001000Y-100299000D01*
X87001000Y-102101000D01*
X87001000Y-102101000D01*
G37*
G36*
X88750442Y-100305518D02*
X88816627Y-100312037D01*
X88929853Y-100346384D01*
X88986467Y-100363557D01*
X89106296Y-100427608D01*
X89142991Y-100447222D01*
X89178729Y-100476552D01*
X89280186Y-100559814D01*
X89363448Y-100661271D01*
X89392778Y-100697009D01*
X89392779Y-100697011D01*
X89476443Y-100853533D01*
X89476443Y-100853534D01*
X89527963Y-101023373D01*
X89545359Y-101200000D01*
X89527963Y-101376627D01*
X89493616Y-101489853D01*
X89476443Y-101546467D01*
X89402348Y-101685087D01*
X89392778Y-101702991D01*
X89363448Y-101738729D01*
X89280186Y-101840186D01*
X89178729Y-101923448D01*
X89142991Y-101952778D01*
X89142989Y-101952779D01*
X88986467Y-102036443D01*
X88929853Y-102053616D01*
X88816627Y-102087963D01*
X88750443Y-102094481D01*
X88684260Y-102101000D01*
X88595740Y-102101000D01*
X88529558Y-102094482D01*
X88463373Y-102087963D01*
X88350147Y-102053616D01*
X88293533Y-102036443D01*
X88137011Y-101952779D01*
X88137009Y-101952778D01*
X88101271Y-101923448D01*
X87999814Y-101840186D01*
X87916552Y-101738729D01*
X87887222Y-101702991D01*
X87877652Y-101685087D01*
X87803557Y-101546467D01*
X87786384Y-101489853D01*
X87752037Y-101376627D01*
X87734641Y-101200000D01*
X87752037Y-101023373D01*
X87803557Y-100853534D01*
X87803557Y-100853533D01*
X87887221Y-100697011D01*
X87887222Y-100697009D01*
X87916552Y-100661271D01*
X87999814Y-100559814D01*
X88101271Y-100476552D01*
X88137009Y-100447222D01*
X88173704Y-100427608D01*
X88293533Y-100363557D01*
X88350147Y-100346384D01*
X88463373Y-100312037D01*
X88529558Y-100305518D01*
X88595740Y-100299000D01*
X88684260Y-100299000D01*
X88750442Y-100305518D01*
X88750442Y-100305518D01*
G37*
G36*
X91290442Y-100305518D02*
X91356627Y-100312037D01*
X91469853Y-100346384D01*
X91526467Y-100363557D01*
X91646296Y-100427608D01*
X91682991Y-100447222D01*
X91718729Y-100476552D01*
X91820186Y-100559814D01*
X91903448Y-100661271D01*
X91932778Y-100697009D01*
X91932779Y-100697011D01*
X92016443Y-100853533D01*
X92016443Y-100853534D01*
X92067963Y-101023373D01*
X92085359Y-101200000D01*
X92067963Y-101376627D01*
X92033616Y-101489853D01*
X92016443Y-101546467D01*
X91942348Y-101685087D01*
X91932778Y-101702991D01*
X91903448Y-101738729D01*
X91820186Y-101840186D01*
X91718729Y-101923448D01*
X91682991Y-101952778D01*
X91682989Y-101952779D01*
X91526467Y-102036443D01*
X91469853Y-102053616D01*
X91356627Y-102087963D01*
X91290443Y-102094481D01*
X91224260Y-102101000D01*
X91135740Y-102101000D01*
X91069558Y-102094482D01*
X91003373Y-102087963D01*
X90890147Y-102053616D01*
X90833533Y-102036443D01*
X90677011Y-101952779D01*
X90677009Y-101952778D01*
X90641271Y-101923448D01*
X90539814Y-101840186D01*
X90456552Y-101738729D01*
X90427222Y-101702991D01*
X90417652Y-101685087D01*
X90343557Y-101546467D01*
X90326384Y-101489853D01*
X90292037Y-101376627D01*
X90274641Y-101200000D01*
X90292037Y-101023373D01*
X90343557Y-100853534D01*
X90343557Y-100853533D01*
X90427221Y-100697011D01*
X90427222Y-100697009D01*
X90456552Y-100661271D01*
X90539814Y-100559814D01*
X90641271Y-100476552D01*
X90677009Y-100447222D01*
X90713704Y-100427608D01*
X90833533Y-100363557D01*
X90890147Y-100346384D01*
X91003373Y-100312037D01*
X91069558Y-100305518D01*
X91135740Y-100299000D01*
X91224260Y-100299000D01*
X91290442Y-100305518D01*
X91290442Y-100305518D01*
G37*
M02*
