G04 #@! TF.GenerationSoftware,KiCad,Pcbnew,5.0.2-bee76a0~70~ubuntu18.04.1*
G04 #@! TF.CreationDate,2019-02-08T21:36:26-08:00*
G04 #@! TF.ProjectId,sao-bob_ross1,73616f2d-626f-4625-9f72-6f7373312e6b,rev?*
G04 #@! TF.SameCoordinates,Original*
G04 #@! TF.FileFunction,Copper,L1,Top*
G04 #@! TF.FilePolarity,Positive*
%FSLAX46Y46*%
G04 Gerber Fmt 4.6, Leading zero omitted, Abs format (unit mm)*
G04 Created by KiCad (PCBNEW 5.0.2-bee76a0~70~ubuntu18.04.1) date Fri 08 Feb 2019 09:36:26 PM PST*
%MOMM*%
%LPD*%
G01*
G04 APERTURE LIST*
G04 #@! TA.AperFunction,ComponentPad*
%ADD10R,1.700000X1.700000*%
G04 #@! TD*
G04 #@! TA.AperFunction,ComponentPad*
%ADD11O,1.700000X1.700000*%
G04 #@! TD*
G04 #@! TA.AperFunction,ComponentPad*
%ADD12C,6.400000*%
G04 #@! TD*
G04 #@! TA.AperFunction,Conductor*
%ADD13C,0.250000*%
G04 #@! TD*
G04 #@! TA.AperFunction,Conductor*
%ADD14C,0.254000*%
G04 #@! TD*
G04 APERTURE END LIST*
D10*
G04 #@! TO.P,J1,1*
G04 #@! TO.N,Net-(J1-Pad1)*
X95000000Y-106000000D03*
D11*
G04 #@! TO.P,J1,2*
G04 #@! TO.N,GND*
X95000000Y-108540000D03*
G04 #@! TO.P,J1,3*
G04 #@! TO.N,Net-(J1-Pad3)*
X97540000Y-106000000D03*
G04 #@! TO.P,J1,4*
G04 #@! TO.N,Net-(J1-Pad4)*
X97540000Y-108540000D03*
G04 #@! TO.P,J1,5*
G04 #@! TO.N,Net-(J1-Pad5)*
X100080000Y-106000000D03*
G04 #@! TO.P,J1,6*
G04 #@! TO.N,Net-(J1-Pad6)*
X100080000Y-108540000D03*
G04 #@! TD*
G04 #@! TO.P,J2,6*
G04 #@! TO.N,Net-(J1-Pad6)*
X91180000Y-103740000D03*
G04 #@! TO.P,J2,5*
G04 #@! TO.N,Net-(J1-Pad5)*
X91180000Y-101200000D03*
G04 #@! TO.P,J2,4*
G04 #@! TO.N,Net-(J1-Pad4)*
X88640000Y-103740000D03*
G04 #@! TO.P,J2,3*
G04 #@! TO.N,Net-(J1-Pad3)*
X88640000Y-101200000D03*
G04 #@! TO.P,J2,2*
G04 #@! TO.N,GND*
X86100000Y-103740000D03*
D10*
G04 #@! TO.P,J2,1*
G04 #@! TO.N,Net-(J1-Pad1)*
X86100000Y-101200000D03*
G04 #@! TD*
D12*
G04 #@! TO.P,REF\002A\002A,1*
G04 #@! TO.N,N/C*
X74100000Y-102500000D03*
G04 #@! TD*
D13*
G04 #@! TO.N,Net-(J1-Pad1)*
X95000000Y-103400000D02*
X95000000Y-106000000D01*
X94000000Y-102400000D02*
X95000000Y-103400000D01*
X86500000Y-102400000D02*
X94000000Y-102400000D01*
X86100000Y-101200000D02*
X86100000Y-102000000D01*
X86100000Y-102000000D02*
X86500000Y-102400000D01*
G04 #@! TO.N,Net-(J1-Pad3)*
X98389999Y-106849999D02*
X97540000Y-106000000D01*
X98840000Y-107300000D02*
X98389999Y-106849999D01*
X89840000Y-100000000D02*
X98600000Y-100000000D01*
X88640000Y-101200000D02*
X89840000Y-100000000D01*
X100900000Y-107300000D02*
X98840000Y-107300000D01*
X98600000Y-100000000D02*
X101700000Y-103100000D01*
X101700000Y-103100000D02*
X101700000Y-106500000D01*
X101700000Y-106500000D02*
X100900000Y-107300000D01*
G04 #@! TO.N,Net-(J1-Pad5)*
X91180000Y-101200000D02*
X98200000Y-101200000D01*
X100080000Y-103080000D02*
X100080000Y-106000000D01*
X98200000Y-101200000D02*
X100080000Y-103080000D01*
G04 #@! TO.N,Net-(J1-Pad6)*
X91180000Y-104942081D02*
X92000000Y-105762081D01*
X91180000Y-103740000D02*
X91180000Y-104942081D01*
X92000000Y-105762081D02*
X92000000Y-108800000D01*
X92000000Y-108800000D02*
X93300000Y-110100000D01*
X98520000Y-110100000D02*
X100080000Y-108540000D01*
X93300000Y-110100000D02*
X98520000Y-110100000D01*
G04 #@! TD*
D14*
G04 #@! TO.N,GND*
G36*
X125350951Y-80719729D02*
X125434663Y-80732090D01*
X126254747Y-80805281D01*
X126985643Y-81005231D01*
X127669575Y-81331450D01*
X128284928Y-81773626D01*
X128812259Y-82317789D01*
X129234886Y-82946726D01*
X129539463Y-83640570D01*
X129717715Y-84383039D01*
X129766974Y-85053830D01*
X129788091Y-85182787D01*
X129790000Y-85188178D01*
X129790001Y-114818724D01*
X129780271Y-114850951D01*
X129767910Y-114934663D01*
X129694719Y-115754748D01*
X129494769Y-116485643D01*
X129168550Y-117169575D01*
X128726374Y-117784928D01*
X128182211Y-118312259D01*
X127553274Y-118734886D01*
X126859429Y-119039464D01*
X126116961Y-119217714D01*
X125446170Y-119266974D01*
X125317214Y-119288091D01*
X125311823Y-119290000D01*
X74681273Y-119290000D01*
X74649049Y-119280271D01*
X74565337Y-119267910D01*
X73745252Y-119194719D01*
X73014357Y-118994769D01*
X72330425Y-118668550D01*
X71715072Y-118226374D01*
X71187741Y-117682211D01*
X70765114Y-117053274D01*
X70460536Y-116359429D01*
X70282286Y-115616961D01*
X70233026Y-114946170D01*
X70211909Y-114817214D01*
X70210000Y-114811823D01*
X70210000Y-102122285D01*
X70265000Y-102122285D01*
X70265000Y-102877715D01*
X70412377Y-103618628D01*
X70701467Y-104316554D01*
X71121161Y-104944670D01*
X71655330Y-105478839D01*
X72283446Y-105898533D01*
X72981372Y-106187623D01*
X73722285Y-106335000D01*
X74477715Y-106335000D01*
X75218628Y-106187623D01*
X75916554Y-105898533D01*
X76544670Y-105478839D01*
X77078839Y-104944670D01*
X77498533Y-104316554D01*
X77589520Y-104096891D01*
X84658519Y-104096891D01*
X84755843Y-104371252D01*
X84904822Y-104621355D01*
X85099731Y-104837588D01*
X85333080Y-105011641D01*
X85595901Y-105136825D01*
X85743110Y-105181476D01*
X85973000Y-105060155D01*
X85973000Y-103867000D01*
X84779186Y-103867000D01*
X84658519Y-104096891D01*
X77589520Y-104096891D01*
X77787623Y-103618628D01*
X77935000Y-102877715D01*
X77935000Y-102122285D01*
X77787623Y-101381372D01*
X77498533Y-100683446D01*
X77275732Y-100350000D01*
X84611928Y-100350000D01*
X84611928Y-102050000D01*
X84624188Y-102174482D01*
X84660498Y-102294180D01*
X84719463Y-102404494D01*
X84798815Y-102501185D01*
X84895506Y-102580537D01*
X85005820Y-102639502D01*
X85081626Y-102662498D01*
X84904822Y-102858645D01*
X84755843Y-103108748D01*
X84658519Y-103383109D01*
X84779186Y-103613000D01*
X85973000Y-103613000D01*
X85973000Y-103593000D01*
X86227000Y-103593000D01*
X86227000Y-103613000D01*
X86247000Y-103613000D01*
X86247000Y-103867000D01*
X86227000Y-103867000D01*
X86227000Y-105060155D01*
X86456890Y-105181476D01*
X86604099Y-105136825D01*
X86866920Y-105011641D01*
X87100269Y-104837588D01*
X87295178Y-104621355D01*
X87364799Y-104504477D01*
X87399294Y-104569014D01*
X87584866Y-104795134D01*
X87810986Y-104980706D01*
X88068966Y-105118599D01*
X88348889Y-105203513D01*
X88567050Y-105225000D01*
X88712950Y-105225000D01*
X88931111Y-105203513D01*
X89211034Y-105118599D01*
X89469014Y-104980706D01*
X89695134Y-104795134D01*
X89880706Y-104569014D01*
X89910000Y-104514209D01*
X89939294Y-104569014D01*
X90124866Y-104795134D01*
X90350986Y-104980706D01*
X90423971Y-105019717D01*
X90430998Y-105091066D01*
X90474454Y-105234327D01*
X90545026Y-105366357D01*
X90602346Y-105436201D01*
X90640000Y-105482082D01*
X90668998Y-105505880D01*
X91240000Y-106076883D01*
X91240001Y-108762668D01*
X91236324Y-108800000D01*
X91240001Y-108837333D01*
X91250998Y-108948986D01*
X91264180Y-108992442D01*
X91294454Y-109092246D01*
X91365026Y-109224276D01*
X91436201Y-109311002D01*
X91460000Y-109340001D01*
X91488998Y-109363799D01*
X92736201Y-110611003D01*
X92759999Y-110640001D01*
X92875724Y-110734974D01*
X93007753Y-110805546D01*
X93151014Y-110849003D01*
X93262667Y-110860000D01*
X93262675Y-110860000D01*
X93300000Y-110863676D01*
X93337325Y-110860000D01*
X98482678Y-110860000D01*
X98520000Y-110863676D01*
X98557322Y-110860000D01*
X98557333Y-110860000D01*
X98668986Y-110849003D01*
X98812247Y-110805546D01*
X98944276Y-110734974D01*
X99060001Y-110640001D01*
X99083804Y-110610997D01*
X99714004Y-109980797D01*
X99788889Y-110003513D01*
X100007050Y-110025000D01*
X100152950Y-110025000D01*
X100371111Y-110003513D01*
X100651034Y-109918599D01*
X100909014Y-109780706D01*
X101135134Y-109595134D01*
X101320706Y-109369014D01*
X101458599Y-109111034D01*
X101543513Y-108831111D01*
X101572185Y-108540000D01*
X101543513Y-108248889D01*
X101458599Y-107968966D01*
X101405014Y-107868714D01*
X101440001Y-107840001D01*
X101463803Y-107810998D01*
X102211002Y-107063799D01*
X102240001Y-107040001D01*
X102334974Y-106924276D01*
X102405546Y-106792247D01*
X102449003Y-106648986D01*
X102460000Y-106537333D01*
X102460000Y-106537323D01*
X102463676Y-106500000D01*
X102460000Y-106462677D01*
X102460000Y-103137322D01*
X102463676Y-103099999D01*
X102460000Y-103062676D01*
X102460000Y-103062667D01*
X102449003Y-102951014D01*
X102405546Y-102807753D01*
X102374143Y-102749003D01*
X102334974Y-102675723D01*
X102263799Y-102588997D01*
X102240001Y-102559999D01*
X102211004Y-102536202D01*
X99163804Y-99489003D01*
X99140001Y-99459999D01*
X99024276Y-99365026D01*
X98892247Y-99294454D01*
X98748986Y-99250997D01*
X98637333Y-99240000D01*
X98637322Y-99240000D01*
X98600000Y-99236324D01*
X98562678Y-99240000D01*
X89877322Y-99240000D01*
X89839999Y-99236324D01*
X89802676Y-99240000D01*
X89802667Y-99240000D01*
X89691014Y-99250997D01*
X89547753Y-99294454D01*
X89415724Y-99365026D01*
X89299999Y-99459999D01*
X89276201Y-99488997D01*
X89005995Y-99759203D01*
X88931111Y-99736487D01*
X88712950Y-99715000D01*
X88567050Y-99715000D01*
X88348889Y-99736487D01*
X88068966Y-99821401D01*
X87810986Y-99959294D01*
X87584866Y-100144866D01*
X87560393Y-100174687D01*
X87539502Y-100105820D01*
X87480537Y-99995506D01*
X87401185Y-99898815D01*
X87304494Y-99819463D01*
X87194180Y-99760498D01*
X87074482Y-99724188D01*
X86950000Y-99711928D01*
X85250000Y-99711928D01*
X85125518Y-99724188D01*
X85005820Y-99760498D01*
X84895506Y-99819463D01*
X84798815Y-99898815D01*
X84719463Y-99995506D01*
X84660498Y-100105820D01*
X84624188Y-100225518D01*
X84611928Y-100350000D01*
X77275732Y-100350000D01*
X77078839Y-100055330D01*
X76544670Y-99521161D01*
X75916554Y-99101467D01*
X75218628Y-98812377D01*
X74477715Y-98665000D01*
X73722285Y-98665000D01*
X72981372Y-98812377D01*
X72283446Y-99101467D01*
X71655330Y-99521161D01*
X71121161Y-100055330D01*
X70701467Y-100683446D01*
X70412377Y-101381372D01*
X70265000Y-102122285D01*
X70210000Y-102122285D01*
X70210000Y-85181273D01*
X70219729Y-85149049D01*
X70232090Y-85065337D01*
X70305281Y-84245253D01*
X70505231Y-83514357D01*
X70831450Y-82830425D01*
X71273626Y-82215072D01*
X71817789Y-81687741D01*
X72446726Y-81265114D01*
X73140570Y-80960537D01*
X73883039Y-80782285D01*
X74553830Y-80733026D01*
X74682787Y-80711909D01*
X74688178Y-80710000D01*
X125318727Y-80710000D01*
X125350951Y-80719729D01*
X125350951Y-80719729D01*
G37*
X125350951Y-80719729D02*
X125434663Y-80732090D01*
X126254747Y-80805281D01*
X126985643Y-81005231D01*
X127669575Y-81331450D01*
X128284928Y-81773626D01*
X128812259Y-82317789D01*
X129234886Y-82946726D01*
X129539463Y-83640570D01*
X129717715Y-84383039D01*
X129766974Y-85053830D01*
X129788091Y-85182787D01*
X129790000Y-85188178D01*
X129790001Y-114818724D01*
X129780271Y-114850951D01*
X129767910Y-114934663D01*
X129694719Y-115754748D01*
X129494769Y-116485643D01*
X129168550Y-117169575D01*
X128726374Y-117784928D01*
X128182211Y-118312259D01*
X127553274Y-118734886D01*
X126859429Y-119039464D01*
X126116961Y-119217714D01*
X125446170Y-119266974D01*
X125317214Y-119288091D01*
X125311823Y-119290000D01*
X74681273Y-119290000D01*
X74649049Y-119280271D01*
X74565337Y-119267910D01*
X73745252Y-119194719D01*
X73014357Y-118994769D01*
X72330425Y-118668550D01*
X71715072Y-118226374D01*
X71187741Y-117682211D01*
X70765114Y-117053274D01*
X70460536Y-116359429D01*
X70282286Y-115616961D01*
X70233026Y-114946170D01*
X70211909Y-114817214D01*
X70210000Y-114811823D01*
X70210000Y-102122285D01*
X70265000Y-102122285D01*
X70265000Y-102877715D01*
X70412377Y-103618628D01*
X70701467Y-104316554D01*
X71121161Y-104944670D01*
X71655330Y-105478839D01*
X72283446Y-105898533D01*
X72981372Y-106187623D01*
X73722285Y-106335000D01*
X74477715Y-106335000D01*
X75218628Y-106187623D01*
X75916554Y-105898533D01*
X76544670Y-105478839D01*
X77078839Y-104944670D01*
X77498533Y-104316554D01*
X77589520Y-104096891D01*
X84658519Y-104096891D01*
X84755843Y-104371252D01*
X84904822Y-104621355D01*
X85099731Y-104837588D01*
X85333080Y-105011641D01*
X85595901Y-105136825D01*
X85743110Y-105181476D01*
X85973000Y-105060155D01*
X85973000Y-103867000D01*
X84779186Y-103867000D01*
X84658519Y-104096891D01*
X77589520Y-104096891D01*
X77787623Y-103618628D01*
X77935000Y-102877715D01*
X77935000Y-102122285D01*
X77787623Y-101381372D01*
X77498533Y-100683446D01*
X77275732Y-100350000D01*
X84611928Y-100350000D01*
X84611928Y-102050000D01*
X84624188Y-102174482D01*
X84660498Y-102294180D01*
X84719463Y-102404494D01*
X84798815Y-102501185D01*
X84895506Y-102580537D01*
X85005820Y-102639502D01*
X85081626Y-102662498D01*
X84904822Y-102858645D01*
X84755843Y-103108748D01*
X84658519Y-103383109D01*
X84779186Y-103613000D01*
X85973000Y-103613000D01*
X85973000Y-103593000D01*
X86227000Y-103593000D01*
X86227000Y-103613000D01*
X86247000Y-103613000D01*
X86247000Y-103867000D01*
X86227000Y-103867000D01*
X86227000Y-105060155D01*
X86456890Y-105181476D01*
X86604099Y-105136825D01*
X86866920Y-105011641D01*
X87100269Y-104837588D01*
X87295178Y-104621355D01*
X87364799Y-104504477D01*
X87399294Y-104569014D01*
X87584866Y-104795134D01*
X87810986Y-104980706D01*
X88068966Y-105118599D01*
X88348889Y-105203513D01*
X88567050Y-105225000D01*
X88712950Y-105225000D01*
X88931111Y-105203513D01*
X89211034Y-105118599D01*
X89469014Y-104980706D01*
X89695134Y-104795134D01*
X89880706Y-104569014D01*
X89910000Y-104514209D01*
X89939294Y-104569014D01*
X90124866Y-104795134D01*
X90350986Y-104980706D01*
X90423971Y-105019717D01*
X90430998Y-105091066D01*
X90474454Y-105234327D01*
X90545026Y-105366357D01*
X90602346Y-105436201D01*
X90640000Y-105482082D01*
X90668998Y-105505880D01*
X91240000Y-106076883D01*
X91240001Y-108762668D01*
X91236324Y-108800000D01*
X91240001Y-108837333D01*
X91250998Y-108948986D01*
X91264180Y-108992442D01*
X91294454Y-109092246D01*
X91365026Y-109224276D01*
X91436201Y-109311002D01*
X91460000Y-109340001D01*
X91488998Y-109363799D01*
X92736201Y-110611003D01*
X92759999Y-110640001D01*
X92875724Y-110734974D01*
X93007753Y-110805546D01*
X93151014Y-110849003D01*
X93262667Y-110860000D01*
X93262675Y-110860000D01*
X93300000Y-110863676D01*
X93337325Y-110860000D01*
X98482678Y-110860000D01*
X98520000Y-110863676D01*
X98557322Y-110860000D01*
X98557333Y-110860000D01*
X98668986Y-110849003D01*
X98812247Y-110805546D01*
X98944276Y-110734974D01*
X99060001Y-110640001D01*
X99083804Y-110610997D01*
X99714004Y-109980797D01*
X99788889Y-110003513D01*
X100007050Y-110025000D01*
X100152950Y-110025000D01*
X100371111Y-110003513D01*
X100651034Y-109918599D01*
X100909014Y-109780706D01*
X101135134Y-109595134D01*
X101320706Y-109369014D01*
X101458599Y-109111034D01*
X101543513Y-108831111D01*
X101572185Y-108540000D01*
X101543513Y-108248889D01*
X101458599Y-107968966D01*
X101405014Y-107868714D01*
X101440001Y-107840001D01*
X101463803Y-107810998D01*
X102211002Y-107063799D01*
X102240001Y-107040001D01*
X102334974Y-106924276D01*
X102405546Y-106792247D01*
X102449003Y-106648986D01*
X102460000Y-106537333D01*
X102460000Y-106537323D01*
X102463676Y-106500000D01*
X102460000Y-106462677D01*
X102460000Y-103137322D01*
X102463676Y-103099999D01*
X102460000Y-103062676D01*
X102460000Y-103062667D01*
X102449003Y-102951014D01*
X102405546Y-102807753D01*
X102374143Y-102749003D01*
X102334974Y-102675723D01*
X102263799Y-102588997D01*
X102240001Y-102559999D01*
X102211004Y-102536202D01*
X99163804Y-99489003D01*
X99140001Y-99459999D01*
X99024276Y-99365026D01*
X98892247Y-99294454D01*
X98748986Y-99250997D01*
X98637333Y-99240000D01*
X98637322Y-99240000D01*
X98600000Y-99236324D01*
X98562678Y-99240000D01*
X89877322Y-99240000D01*
X89839999Y-99236324D01*
X89802676Y-99240000D01*
X89802667Y-99240000D01*
X89691014Y-99250997D01*
X89547753Y-99294454D01*
X89415724Y-99365026D01*
X89299999Y-99459999D01*
X89276201Y-99488997D01*
X89005995Y-99759203D01*
X88931111Y-99736487D01*
X88712950Y-99715000D01*
X88567050Y-99715000D01*
X88348889Y-99736487D01*
X88068966Y-99821401D01*
X87810986Y-99959294D01*
X87584866Y-100144866D01*
X87560393Y-100174687D01*
X87539502Y-100105820D01*
X87480537Y-99995506D01*
X87401185Y-99898815D01*
X87304494Y-99819463D01*
X87194180Y-99760498D01*
X87074482Y-99724188D01*
X86950000Y-99711928D01*
X85250000Y-99711928D01*
X85125518Y-99724188D01*
X85005820Y-99760498D01*
X84895506Y-99819463D01*
X84798815Y-99898815D01*
X84719463Y-99995506D01*
X84660498Y-100105820D01*
X84624188Y-100225518D01*
X84611928Y-100350000D01*
X77275732Y-100350000D01*
X77078839Y-100055330D01*
X76544670Y-99521161D01*
X75916554Y-99101467D01*
X75218628Y-98812377D01*
X74477715Y-98665000D01*
X73722285Y-98665000D01*
X72981372Y-98812377D01*
X72283446Y-99101467D01*
X71655330Y-99521161D01*
X71121161Y-100055330D01*
X70701467Y-100683446D01*
X70412377Y-101381372D01*
X70265000Y-102122285D01*
X70210000Y-102122285D01*
X70210000Y-85181273D01*
X70219729Y-85149049D01*
X70232090Y-85065337D01*
X70305281Y-84245253D01*
X70505231Y-83514357D01*
X70831450Y-82830425D01*
X71273626Y-82215072D01*
X71817789Y-81687741D01*
X72446726Y-81265114D01*
X73140570Y-80960537D01*
X73883039Y-80782285D01*
X74553830Y-80733026D01*
X74682787Y-80711909D01*
X74688178Y-80710000D01*
X125318727Y-80710000D01*
X125350951Y-80719729D01*
G36*
X94240000Y-103714802D02*
X94240000Y-104511928D01*
X94150000Y-104511928D01*
X94025518Y-104524188D01*
X93905820Y-104560498D01*
X93795506Y-104619463D01*
X93698815Y-104698815D01*
X93619463Y-104795506D01*
X93560498Y-104905820D01*
X93524188Y-105025518D01*
X93511928Y-105150000D01*
X93511928Y-106850000D01*
X93524188Y-106974482D01*
X93560498Y-107094180D01*
X93619463Y-107204494D01*
X93698815Y-107301185D01*
X93795506Y-107380537D01*
X93905820Y-107439502D01*
X93981626Y-107462498D01*
X93804822Y-107658645D01*
X93655843Y-107908748D01*
X93558519Y-108183109D01*
X93679186Y-108413000D01*
X94873000Y-108413000D01*
X94873000Y-108393000D01*
X95127000Y-108393000D01*
X95127000Y-108413000D01*
X95147000Y-108413000D01*
X95147000Y-108667000D01*
X95127000Y-108667000D01*
X95127000Y-108687000D01*
X94873000Y-108687000D01*
X94873000Y-108667000D01*
X93679186Y-108667000D01*
X93558519Y-108896891D01*
X93655843Y-109171252D01*
X93756361Y-109340000D01*
X93614802Y-109340000D01*
X92760000Y-108485199D01*
X92760000Y-105799403D01*
X92763676Y-105762080D01*
X92760000Y-105724757D01*
X92760000Y-105724748D01*
X92749003Y-105613095D01*
X92705546Y-105469834D01*
X92650236Y-105366357D01*
X92634974Y-105337804D01*
X92563799Y-105251078D01*
X92540001Y-105222080D01*
X92511004Y-105198283D01*
X92165226Y-104852506D01*
X92235134Y-104795134D01*
X92420706Y-104569014D01*
X92558599Y-104311034D01*
X92643513Y-104031111D01*
X92672185Y-103740000D01*
X92643513Y-103448889D01*
X92558599Y-103168966D01*
X92553807Y-103160000D01*
X93685199Y-103160000D01*
X94240000Y-103714802D01*
X94240000Y-103714802D01*
G37*
X94240000Y-103714802D02*
X94240000Y-104511928D01*
X94150000Y-104511928D01*
X94025518Y-104524188D01*
X93905820Y-104560498D01*
X93795506Y-104619463D01*
X93698815Y-104698815D01*
X93619463Y-104795506D01*
X93560498Y-104905820D01*
X93524188Y-105025518D01*
X93511928Y-105150000D01*
X93511928Y-106850000D01*
X93524188Y-106974482D01*
X93560498Y-107094180D01*
X93619463Y-107204494D01*
X93698815Y-107301185D01*
X93795506Y-107380537D01*
X93905820Y-107439502D01*
X93981626Y-107462498D01*
X93804822Y-107658645D01*
X93655843Y-107908748D01*
X93558519Y-108183109D01*
X93679186Y-108413000D01*
X94873000Y-108413000D01*
X94873000Y-108393000D01*
X95127000Y-108393000D01*
X95127000Y-108413000D01*
X95147000Y-108413000D01*
X95147000Y-108667000D01*
X95127000Y-108667000D01*
X95127000Y-108687000D01*
X94873000Y-108687000D01*
X94873000Y-108667000D01*
X93679186Y-108667000D01*
X93558519Y-108896891D01*
X93655843Y-109171252D01*
X93756361Y-109340000D01*
X93614802Y-109340000D01*
X92760000Y-108485199D01*
X92760000Y-105799403D01*
X92763676Y-105762080D01*
X92760000Y-105724757D01*
X92760000Y-105724748D01*
X92749003Y-105613095D01*
X92705546Y-105469834D01*
X92650236Y-105366357D01*
X92634974Y-105337804D01*
X92563799Y-105251078D01*
X92540001Y-105222080D01*
X92511004Y-105198283D01*
X92165226Y-104852506D01*
X92235134Y-104795134D01*
X92420706Y-104569014D01*
X92558599Y-104311034D01*
X92643513Y-104031111D01*
X92672185Y-103740000D01*
X92643513Y-103448889D01*
X92558599Y-103168966D01*
X92553807Y-103160000D01*
X93685199Y-103160000D01*
X94240000Y-103714802D01*
G04 #@! TD*
M02*
